G04 #@! TF.FileFunction,Copper,L1,Top,Signal*
%FSLAX46Y46*%
G04 Gerber Fmt 4.6, Leading zero omitted, Abs format (unit mm)*
G04 Created by KiCad (PCBNEW 4.0.7-e2-6376~58~ubuntu16.04.1) date Thu Oct 31 20:50:36 2019*
%MOMM*%
%LPD*%
G01*
G04 APERTURE LIST*
%ADD10C,0.100000*%
%ADD11C,1.524000*%
%ADD12C,1.600000*%
%ADD13R,1.600000X1.600000*%
%ADD14C,1.400000*%
%ADD15O,1.400000X1.400000*%
%ADD16R,1.800000X1.800000*%
%ADD17O,1.800000X1.800000*%
%ADD18O,1.524000X4.500000*%
%ADD19O,1.524000X4.200000*%
%ADD20O,4.200000X1.524000*%
%ADD21C,5.700000*%
%ADD22C,0.600000*%
%ADD23C,0.250000*%
G04 APERTURE END LIST*
D10*
D11*
X59690000Y-140970000D03*
X62230000Y-140970000D03*
X64770000Y-140970000D03*
X67310000Y-140970000D03*
X69850000Y-140970000D03*
X72390000Y-140970000D03*
X74930000Y-140970000D03*
X77470000Y-140970000D03*
X80010000Y-140970000D03*
X82550000Y-140970000D03*
X85090000Y-140970000D03*
X87630000Y-140970000D03*
X90170000Y-140970000D03*
X92710000Y-140970000D03*
X95250000Y-140970000D03*
X95250000Y-125730000D03*
X92710000Y-125730000D03*
X90170000Y-125730000D03*
X87630000Y-125730000D03*
X85090000Y-125730000D03*
X82550000Y-125730000D03*
X80010000Y-125730000D03*
X77470000Y-125730000D03*
X74930000Y-125730000D03*
X72390000Y-125730000D03*
X69850000Y-125730000D03*
X67310000Y-125730000D03*
X64770000Y-125730000D03*
X62230000Y-125730000D03*
X59690000Y-125730000D03*
D12*
X129540000Y-135890000D03*
X132080000Y-135890000D03*
D13*
X106680000Y-135890000D03*
D12*
X104180000Y-135890000D03*
D11*
X38100000Y-168720000D03*
X36250000Y-169180000D03*
X34810000Y-170450000D03*
X34130000Y-172240000D03*
X34360000Y-174130000D03*
X35450000Y-175710000D03*
X37150000Y-176600000D03*
X39050000Y-176600000D03*
X40750000Y-175710000D03*
X41840000Y-174130000D03*
X42070000Y-172240000D03*
X41390000Y-170450000D03*
X39950000Y-169180000D03*
X58420000Y-168720000D03*
X56570000Y-169180000D03*
X55130000Y-170450000D03*
X54450000Y-172240000D03*
X54680000Y-174130000D03*
X55770000Y-175710000D03*
X57470000Y-176600000D03*
X59370000Y-176600000D03*
X61070000Y-175710000D03*
X62160000Y-174130000D03*
X62390000Y-172240000D03*
X61710000Y-170450000D03*
X60270000Y-169180000D03*
X81280000Y-168720000D03*
X79430000Y-169180000D03*
X77990000Y-170450000D03*
X77310000Y-172240000D03*
X77540000Y-174130000D03*
X78630000Y-175710000D03*
X80330000Y-176600000D03*
X82230000Y-176600000D03*
X83930000Y-175710000D03*
X85020000Y-174130000D03*
X85250000Y-172240000D03*
X84570000Y-170450000D03*
X83130000Y-169180000D03*
X101600000Y-168720000D03*
X99750000Y-169180000D03*
X98310000Y-170450000D03*
X97630000Y-172240000D03*
X97860000Y-174130000D03*
X98950000Y-175710000D03*
X100650000Y-176600000D03*
X102550000Y-176600000D03*
X104250000Y-175710000D03*
X105340000Y-174130000D03*
X105570000Y-172240000D03*
X104890000Y-170450000D03*
X103450000Y-169180000D03*
X124460000Y-168720000D03*
X122610000Y-169180000D03*
X121170000Y-170450000D03*
X120490000Y-172240000D03*
X120720000Y-174130000D03*
X121810000Y-175710000D03*
X123510000Y-176600000D03*
X125410000Y-176600000D03*
X127110000Y-175710000D03*
X128200000Y-174130000D03*
X128430000Y-172240000D03*
X127750000Y-170450000D03*
X126310000Y-169180000D03*
X144780000Y-168720000D03*
X142930000Y-169180000D03*
X141490000Y-170450000D03*
X140810000Y-172240000D03*
X141040000Y-174130000D03*
X142130000Y-175710000D03*
X143830000Y-176600000D03*
X145730000Y-176600000D03*
X147430000Y-175710000D03*
X148520000Y-174130000D03*
X148750000Y-172240000D03*
X148070000Y-170450000D03*
X146630000Y-169180000D03*
X34290000Y-144780000D03*
X36830000Y-144780000D03*
X39370000Y-144780000D03*
X41910000Y-144780000D03*
X44450000Y-144780000D03*
X46990000Y-144780000D03*
X49530000Y-144780000D03*
X52070000Y-144780000D03*
X52070000Y-137160000D03*
X49530000Y-137160000D03*
X46990000Y-137160000D03*
X44450000Y-137160000D03*
X41910000Y-137160000D03*
X39370000Y-137160000D03*
X36830000Y-137160000D03*
X34290000Y-137160000D03*
D14*
X34290000Y-151130000D03*
D15*
X41910000Y-151130000D03*
D14*
X34290000Y-154940000D03*
D15*
X34290000Y-162560000D03*
D14*
X54610000Y-149860000D03*
D15*
X62230000Y-149860000D03*
D14*
X55880000Y-154940000D03*
D15*
X55880000Y-162560000D03*
D14*
X77470000Y-149860000D03*
D15*
X85090000Y-149860000D03*
D14*
X78740000Y-154940000D03*
D15*
X78740000Y-162560000D03*
D14*
X97790000Y-149860000D03*
D15*
X105410000Y-149860000D03*
D14*
X99060000Y-154940000D03*
D15*
X99060000Y-162560000D03*
D14*
X121920000Y-154940000D03*
D15*
X121920000Y-162560000D03*
D14*
X120650000Y-149860000D03*
D15*
X128270000Y-149860000D03*
D14*
X140970000Y-149860000D03*
D15*
X148590000Y-149860000D03*
D14*
X142240000Y-154940000D03*
D15*
X142240000Y-162560000D03*
D11*
X41275000Y-154940000D03*
X38735000Y-154940000D03*
X38735000Y-162560000D03*
X41275000Y-162560000D03*
X62230000Y-154940000D03*
X59690000Y-154940000D03*
X59690000Y-162560000D03*
X62230000Y-162560000D03*
X85090000Y-154940000D03*
X82550000Y-154940000D03*
X82550000Y-162560000D03*
X85090000Y-162560000D03*
X105410000Y-154940000D03*
X102870000Y-154940000D03*
X102870000Y-162560000D03*
X105410000Y-162560000D03*
X128270000Y-154940000D03*
X125730000Y-154940000D03*
X125730000Y-162560000D03*
X128270000Y-162560000D03*
X148590000Y-154940000D03*
X146050000Y-154940000D03*
X146050000Y-162560000D03*
X148590000Y-162560000D03*
D16*
X116840000Y-135890000D03*
D17*
X119380000Y-135890000D03*
X121920000Y-135890000D03*
D11*
X35560000Y-129540000D03*
X38100000Y-129540000D03*
X40640000Y-129540000D03*
X43180000Y-129540000D03*
X45720000Y-129540000D03*
X48260000Y-129540000D03*
X88900000Y-144780000D03*
X93980000Y-144780000D03*
X142240000Y-144780000D03*
X137160000Y-144780000D03*
D18*
X142090000Y-132080000D03*
D19*
X148590000Y-132080000D03*
D20*
X145290000Y-137080000D03*
D21*
X82000000Y-146000000D03*
X148000000Y-146000000D03*
X148000000Y-125000000D03*
X154940000Y-179070000D03*
X27940000Y-179070000D03*
X154940000Y-127000000D03*
X27940000Y-127000000D03*
D22*
X97657500Y-168970800D03*
X54163800Y-166773800D03*
X77235500Y-168881500D03*
X134584100Y-168790000D03*
X53538500Y-166201000D03*
X121004100Y-168461900D03*
X96324100Y-166834300D03*
X123047900Y-167348500D03*
X76600900Y-166669100D03*
X53005000Y-165594700D03*
X108195800Y-166703200D03*
X78431700Y-178260100D03*
X84383800Y-177820100D03*
X99764600Y-178176300D03*
X139535900Y-177376300D03*
X60655100Y-177816100D03*
X102946300Y-178773500D03*
X89435000Y-178273900D03*
X52517600Y-174683100D03*
X127252500Y-178451900D03*
X62204100Y-177578800D03*
X74006600Y-166039500D03*
X42509100Y-168114500D03*
X106325700Y-166077800D03*
X85808400Y-166039500D03*
X128158200Y-166999300D03*
X61943400Y-165226900D03*
X41876100Y-164746600D03*
X104951500Y-165305500D03*
X126930400Y-165369400D03*
X84476100Y-165313300D03*
X130168900Y-167264100D03*
D23*
X121920000Y-135890000D02*
X129540000Y-135890000D01*
X91598700Y-142398700D02*
X88741300Y-142398700D01*
X80010000Y-152400000D02*
X77470000Y-149860000D01*
X86360000Y-152400000D02*
X80010000Y-152400000D01*
X87630000Y-151130000D02*
X86360000Y-152400000D01*
X87630000Y-143510000D02*
X87630000Y-151130000D01*
X88741300Y-142398700D02*
X87630000Y-143510000D01*
X91598700Y-140537600D02*
X91598700Y-142398700D01*
X96246300Y-135890000D02*
X91598700Y-140537600D01*
X104180000Y-135890000D02*
X96246300Y-135890000D01*
X91598700Y-142398700D02*
X93980000Y-144780000D01*
X120605300Y-135430400D02*
X120605300Y-135890000D01*
X121371000Y-134664700D02*
X120605300Y-135430400D01*
X130854700Y-134664700D02*
X121371000Y-134664700D01*
X132080000Y-135890000D02*
X130854700Y-134664700D01*
X119380000Y-135890000D02*
X120605300Y-135890000D01*
X38199200Y-143410800D02*
X38199200Y-149860000D01*
X44450000Y-137160000D02*
X38199200Y-143410800D01*
X54610000Y-149860000D02*
X38199200Y-149860000D01*
X35560000Y-149860000D02*
X34290000Y-151130000D01*
X38199200Y-149860000D02*
X35560000Y-149860000D01*
X116840000Y-135890000D02*
X106680000Y-135890000D01*
X142090000Y-132080000D02*
X141002700Y-132080000D01*
X116840000Y-135890000D02*
X118065300Y-135890000D01*
X141002700Y-135677200D02*
X136451400Y-140228500D01*
X141002700Y-132080000D02*
X141002700Y-135677200D01*
X137160000Y-140937100D02*
X136451400Y-140228500D01*
X137160000Y-144780000D02*
X137160000Y-140937100D01*
X118065300Y-136349500D02*
X118065300Y-135890000D01*
X121944300Y-140228500D02*
X118065300Y-136349500D01*
X136451400Y-140228500D02*
X121944300Y-140228500D01*
X53802200Y-167135400D02*
X54163800Y-166773800D01*
X53802200Y-167135500D02*
X53802200Y-167135400D01*
X38102200Y-167135500D02*
X53802200Y-167135500D01*
X36250000Y-168987700D02*
X38102200Y-167135500D01*
X36250000Y-169180000D02*
X36250000Y-168987700D01*
X62457600Y-168881500D02*
X77235500Y-168881500D01*
X60212800Y-166636700D02*
X62457600Y-168881500D01*
X54300900Y-166636700D02*
X60212800Y-166636700D01*
X54163800Y-166773800D02*
X54300900Y-166636700D01*
X93866400Y-168970800D02*
X97657500Y-168970800D01*
X92514500Y-167618900D02*
X93866400Y-168970800D01*
X80796100Y-167618900D02*
X92514500Y-167618900D01*
X79430000Y-168985000D02*
X80796100Y-167618900D01*
X79430000Y-169180000D02*
X79430000Y-168985000D01*
X105636300Y-169180000D02*
X122610000Y-169180000D01*
X104087000Y-167630700D02*
X105636300Y-169180000D01*
X101079100Y-167630700D02*
X104087000Y-167630700D01*
X99750000Y-168959800D02*
X101079100Y-167630700D01*
X99750000Y-169180000D02*
X99750000Y-168959800D01*
X127691300Y-168790000D02*
X134584100Y-168790000D01*
X126509400Y-167608100D02*
X127691300Y-168790000D01*
X124008100Y-167608100D02*
X126509400Y-167608100D01*
X122610000Y-169006200D02*
X124008100Y-167608100D01*
X122610000Y-169180000D02*
X122610000Y-169006200D01*
X77466700Y-168140900D02*
X77990000Y-168664200D01*
X62430700Y-168140900D02*
X77466700Y-168140900D01*
X60396600Y-166106800D02*
X62430700Y-168140900D01*
X53632700Y-166106800D02*
X60396600Y-166106800D01*
X53538500Y-166201000D02*
X53632700Y-166106800D01*
X77990000Y-168664200D02*
X77990000Y-170450000D01*
X97843400Y-168230200D02*
X98310000Y-168696800D01*
X96694500Y-168230200D02*
X97843400Y-168230200D01*
X95583800Y-167119500D02*
X96694500Y-168230200D01*
X79534700Y-167119500D02*
X95583800Y-167119500D01*
X77990000Y-168664200D02*
X79534700Y-167119500D01*
X98310000Y-168696800D02*
X98310000Y-170450000D01*
X105780400Y-168461900D02*
X121004100Y-168461900D01*
X104498900Y-167180400D02*
X105780400Y-168461900D01*
X99826400Y-167180400D02*
X104498900Y-167180400D01*
X98310000Y-168696800D02*
X99826400Y-167180400D01*
X138754400Y-167714400D02*
X141490000Y-170450000D01*
X130603000Y-167714400D02*
X138754400Y-167714400D01*
X130428000Y-167889400D02*
X130603000Y-167714400D01*
X128064500Y-167889400D02*
X130428000Y-167889400D01*
X126882600Y-166707500D02*
X128064500Y-167889400D01*
X122758500Y-166707500D02*
X126882600Y-166707500D01*
X121004100Y-168461900D02*
X122758500Y-166707500D01*
X53519500Y-166220000D02*
X53538500Y-166201000D01*
X37647500Y-166220000D02*
X53519500Y-166220000D01*
X34810000Y-169057500D02*
X37647500Y-166220000D01*
X34810000Y-170450000D02*
X34810000Y-169057500D01*
X96158900Y-166669100D02*
X96324100Y-166834300D01*
X76600900Y-166669100D02*
X96158900Y-166669100D01*
X96455200Y-166703200D02*
X108195800Y-166703200D01*
X96324100Y-166834300D02*
X96455200Y-166703200D01*
X136734700Y-168164700D02*
X140810000Y-172240000D01*
X130789600Y-168164700D02*
X136734700Y-168164700D01*
X130614600Y-168339700D02*
X130789600Y-168164700D01*
X127877900Y-168339700D02*
X130614600Y-168339700D01*
X126696000Y-167157800D02*
X127877900Y-168339700D01*
X123238600Y-167157800D02*
X126696000Y-167157800D01*
X123047900Y-167348500D02*
X123238600Y-167157800D01*
X62501300Y-166669100D02*
X76600900Y-166669100D01*
X61394500Y-165562300D02*
X62501300Y-166669100D01*
X53037400Y-165562300D02*
X61394500Y-165562300D01*
X53005000Y-165594700D02*
X53037400Y-165562300D01*
X37628100Y-165594700D02*
X53005000Y-165594700D01*
X33690900Y-169531900D02*
X37628100Y-165594700D01*
X33690900Y-171800900D02*
X33690900Y-169531900D01*
X34130000Y-172240000D02*
X33690900Y-171800900D01*
X34331400Y-175710000D02*
X35450000Y-175710000D01*
X32803200Y-174181800D02*
X34331400Y-175710000D01*
X32803200Y-149812800D02*
X32803200Y-174181800D01*
X35560000Y-147056000D02*
X32803200Y-149812800D01*
X35560000Y-143510000D02*
X35560000Y-147056000D01*
X41910000Y-137160000D02*
X35560000Y-143510000D01*
X55367800Y-176112200D02*
X55770000Y-175710000D01*
X55367700Y-176112200D02*
X55367800Y-176112200D01*
X54668200Y-176112200D02*
X55367700Y-176112200D01*
X54650700Y-176129700D02*
X54668200Y-176112200D01*
X54454200Y-176129700D02*
X54650700Y-176129700D01*
X53615600Y-176968300D02*
X54454200Y-176129700D01*
X53392400Y-176968300D02*
X53615600Y-176968300D01*
X52661400Y-177699300D02*
X53392400Y-176968300D01*
X36675400Y-177699300D02*
X52661400Y-177699300D01*
X35450000Y-176473900D02*
X36675400Y-177699300D01*
X35450000Y-175710000D02*
X35450000Y-176473900D01*
X121810000Y-176445600D02*
X121810000Y-175710000D01*
X123541100Y-178176700D02*
X121810000Y-176445600D01*
X126643400Y-178176700D02*
X123541100Y-178176700D01*
X126993500Y-177826600D02*
X126643400Y-178176700D01*
X127511600Y-177826600D02*
X126993500Y-177826600D01*
X127686600Y-178001600D02*
X127511600Y-177826600D01*
X139838400Y-178001600D02*
X127686600Y-178001600D01*
X142130000Y-175710000D02*
X139838400Y-178001600D01*
X78873200Y-178701600D02*
X78431700Y-178260100D01*
X83502300Y-178701600D02*
X78873200Y-178701600D01*
X84383800Y-177820100D02*
X83502300Y-178701600D01*
X77590000Y-178260100D02*
X78431700Y-178260100D01*
X77395300Y-178454800D02*
X77590000Y-178260100D01*
X60381400Y-178454800D02*
X77395300Y-178454800D01*
X60157100Y-178230500D02*
X60381400Y-178454800D01*
X58142600Y-178230500D02*
X60157100Y-178230500D01*
X57824200Y-177912100D02*
X58142600Y-178230500D01*
X57167600Y-177912100D02*
X57824200Y-177912100D01*
X55367800Y-176112200D02*
X57167600Y-177912100D01*
X99764600Y-177485400D02*
X99764600Y-178176300D01*
X100650000Y-176600000D02*
X99764600Y-177485400D01*
X126806900Y-177376300D02*
X139535900Y-177376300D01*
X126487400Y-177695800D02*
X126806900Y-177376300D01*
X124605800Y-177695800D02*
X126487400Y-177695800D01*
X123510000Y-176600000D02*
X124605800Y-177695800D01*
X60601400Y-177762400D02*
X60655100Y-177816100D01*
X58632400Y-177762400D02*
X60601400Y-177762400D01*
X57470000Y-176600000D02*
X58632400Y-177762400D01*
X101840200Y-177309800D02*
X101840200Y-177687400D01*
X102550000Y-176600000D02*
X101840200Y-177309800D01*
X102926300Y-178773500D02*
X102946300Y-178773500D01*
X101840200Y-177687400D02*
X102926300Y-178773500D01*
X89968700Y-178807600D02*
X89435000Y-178273900D01*
X100720000Y-178807600D02*
X89968700Y-178807600D01*
X101840200Y-177687400D02*
X100720000Y-178807600D01*
X81119200Y-177710800D02*
X82230000Y-176600000D01*
X79863900Y-177710800D02*
X81119200Y-177710800D01*
X79050600Y-176897500D02*
X79863900Y-177710800D01*
X59667500Y-176897500D02*
X79050600Y-176897500D01*
X59370000Y-176600000D02*
X59667500Y-176897500D01*
X50382300Y-176818400D02*
X52517600Y-174683100D01*
X39268400Y-176818400D02*
X50382300Y-176818400D01*
X39050000Y-176600000D02*
X39268400Y-176818400D01*
X82164000Y-178203900D02*
X83930000Y-176437900D01*
X79390900Y-178203900D02*
X82164000Y-178203900D01*
X78765800Y-177578800D02*
X79390900Y-178203900D01*
X62204100Y-177578800D02*
X78765800Y-177578800D01*
X83930000Y-176437900D02*
X83930000Y-175710000D01*
X103244500Y-179413600D02*
X104250000Y-178408100D01*
X86905700Y-179413600D02*
X103244500Y-179413600D01*
X83930000Y-176437900D02*
X86905700Y-179413600D01*
X104250000Y-178408100D02*
X104250000Y-175710000D01*
X147430000Y-176444500D02*
X147430000Y-175710000D01*
X145422600Y-178451900D02*
X147430000Y-176444500D01*
X127252500Y-178451900D02*
X145422600Y-178451900D01*
X104479900Y-178638000D02*
X104250000Y-178408100D01*
X127066400Y-178638000D02*
X104479900Y-178638000D01*
X127252500Y-178451900D02*
X127066400Y-178638000D01*
X85808400Y-166039500D02*
X74006600Y-166039500D01*
X62804400Y-171825600D02*
X62390000Y-172240000D01*
X62804400Y-169980300D02*
X62804400Y-171825600D01*
X59950500Y-167126400D02*
X62804400Y-169980300D01*
X56305500Y-167126400D02*
X59950500Y-167126400D01*
X55317400Y-168114500D02*
X56305500Y-167126400D01*
X42509100Y-168114500D02*
X55317400Y-168114500D01*
X85846700Y-166077800D02*
X106325700Y-166077800D01*
X85808400Y-166039500D02*
X85846700Y-166077800D01*
X127236700Y-166077800D02*
X128158200Y-166999300D01*
X106325700Y-166077800D02*
X127236700Y-166077800D01*
X128552200Y-166605300D02*
X128158200Y-166999300D01*
X146328900Y-166605300D02*
X128552200Y-166605300D01*
X149205500Y-169481900D02*
X146328900Y-166605300D01*
X149205500Y-171784500D02*
X149205500Y-169481900D01*
X148750000Y-172240000D02*
X149205500Y-171784500D01*
X40005000Y-162875500D02*
X41876100Y-164746600D01*
X40005000Y-159178700D02*
X40005000Y-162875500D01*
X33258500Y-152432200D02*
X40005000Y-159178700D01*
X33258500Y-150253100D02*
X33258500Y-152432200D01*
X36830000Y-146681600D02*
X33258500Y-150253100D01*
X36830000Y-144780000D02*
X36830000Y-146681600D01*
X61463100Y-164746600D02*
X41876100Y-164746600D01*
X61943400Y-165226900D02*
X61463100Y-164746600D01*
X84476100Y-165305500D02*
X84476100Y-165313300D01*
X62022000Y-165305500D02*
X84476100Y-165305500D01*
X61943400Y-165226900D02*
X62022000Y-165305500D01*
X84476100Y-165305500D02*
X104951500Y-165305500D01*
X126866500Y-165305500D02*
X104951500Y-165305500D01*
X126930400Y-165369400D02*
X126866500Y-165305500D01*
X148070000Y-169049200D02*
X148070000Y-170450000D01*
X146284900Y-167264100D02*
X148070000Y-169049200D01*
X130168900Y-167264100D02*
X146284900Y-167264100D01*
X60270000Y-168993200D02*
X60270000Y-169180000D01*
X58870100Y-167593300D02*
X60270000Y-168993200D01*
X56475500Y-167593300D02*
X58870100Y-167593300D01*
X54888800Y-169180000D02*
X56475500Y-167593300D01*
X39950000Y-169180000D02*
X54888800Y-169180000D01*
X42092700Y-142057300D02*
X39370000Y-144780000D01*
X68762700Y-142057300D02*
X42092700Y-142057300D01*
X69850000Y-140970000D02*
X68762700Y-142057300D01*
X42997300Y-145867300D02*
X41910000Y-144780000D01*
X72572700Y-145867300D02*
X42997300Y-145867300D01*
X77470000Y-140970000D02*
X72572700Y-145867300D01*
X49262200Y-142507800D02*
X46990000Y-144780000D01*
X70852200Y-142507800D02*
X49262200Y-142507800D01*
X72390000Y-140970000D02*
X70852200Y-142507800D01*
X51143900Y-143166100D02*
X49530000Y-144780000D01*
X72733900Y-143166100D02*
X51143900Y-143166100D01*
X74930000Y-140970000D02*
X72733900Y-143166100D01*
X62230000Y-152400000D02*
X62230000Y-149860000D01*
X59690000Y-154940000D02*
X62230000Y-152400000D01*
X52070000Y-154940000D02*
X41275000Y-154940000D01*
X59199500Y-147810500D02*
X52070000Y-154940000D01*
X73169500Y-147810500D02*
X59199500Y-147810500D01*
X80010000Y-140970000D02*
X73169500Y-147810500D01*
X42362400Y-163647400D02*
X41275000Y-162560000D01*
X61142600Y-163647400D02*
X42362400Y-163647400D01*
X62230000Y-162560000D02*
X61142600Y-163647400D01*
X63348500Y-163678500D02*
X62230000Y-162560000D01*
X83971500Y-163678500D02*
X63348500Y-163678500D01*
X85090000Y-162560000D02*
X83971500Y-163678500D01*
X129357400Y-161472600D02*
X128270000Y-162560000D01*
X147502600Y-161472600D02*
X129357400Y-161472600D01*
X148590000Y-162560000D02*
X147502600Y-161472600D01*
X106497400Y-161472600D02*
X105410000Y-162560000D01*
X127182600Y-161472600D02*
X106497400Y-161472600D01*
X128270000Y-162560000D02*
X127182600Y-161472600D01*
X88900000Y-144780000D02*
X88900000Y-158750000D01*
X88900000Y-158750000D02*
X85090000Y-162560000D01*
X101600000Y-158750000D02*
X88900000Y-158750000D01*
X105410000Y-162560000D02*
X101600000Y-158750000D01*
X82550000Y-140970000D02*
X81280000Y-142240000D01*
X68580000Y-154940000D02*
X62230000Y-154940000D01*
X76200000Y-147320000D02*
X68580000Y-154940000D01*
X76200000Y-146050000D02*
X76200000Y-147320000D01*
X80010000Y-142240000D02*
X76200000Y-146050000D01*
X81280000Y-142240000D02*
X80010000Y-142240000D01*
X147407700Y-153757700D02*
X148590000Y-154940000D01*
X105497700Y-153757700D02*
X147407700Y-153757700D01*
X92710000Y-140970000D02*
X105497700Y-153757700D01*
X89998900Y-128441100D02*
X92710000Y-125730000D01*
X46818900Y-128441100D02*
X89998900Y-128441100D01*
X45720000Y-129540000D02*
X46818900Y-128441100D01*
X75310300Y-127889700D02*
X77470000Y-125730000D01*
X44830300Y-127889700D02*
X75310300Y-127889700D01*
X43180000Y-129540000D02*
X44830300Y-127889700D01*
X73547100Y-127112900D02*
X74930000Y-125730000D01*
X43067100Y-127112900D02*
X73547100Y-127112900D01*
X40640000Y-129540000D02*
X43067100Y-127112900D01*
M02*
