G04 #@! TF.FileFunction,Soldermask,Top*
%FSLAX46Y46*%
G04 Gerber Fmt 4.6, Leading zero omitted, Abs format (unit mm)*
G04 Created by KiCad (PCBNEW 4.0.7-e2-6376~58~ubuntu16.04.1) date Thu Oct 31 20:50:36 2019*
%MOMM*%
%LPD*%
G01*
G04 APERTURE LIST*
%ADD10C,0.100000*%
%ADD11C,1.924000*%
%ADD12C,2.000000*%
%ADD13R,2.000000X2.000000*%
%ADD14C,1.800000*%
%ADD15O,1.800000X1.800000*%
%ADD16R,2.200000X2.200000*%
%ADD17O,2.200000X2.200000*%
%ADD18O,1.924000X4.900000*%
%ADD19O,1.924000X4.600000*%
%ADD20O,4.600000X1.924000*%
%ADD21C,6.100000*%
G04 APERTURE END LIST*
D10*
D11*
X59690000Y-140970000D03*
X62230000Y-140970000D03*
X64770000Y-140970000D03*
X67310000Y-140970000D03*
X69850000Y-140970000D03*
X72390000Y-140970000D03*
X74930000Y-140970000D03*
X77470000Y-140970000D03*
X80010000Y-140970000D03*
X82550000Y-140970000D03*
X85090000Y-140970000D03*
X87630000Y-140970000D03*
X90170000Y-140970000D03*
X92710000Y-140970000D03*
X95250000Y-140970000D03*
X95250000Y-125730000D03*
X92710000Y-125730000D03*
X90170000Y-125730000D03*
X87630000Y-125730000D03*
X85090000Y-125730000D03*
X82550000Y-125730000D03*
X80010000Y-125730000D03*
X77470000Y-125730000D03*
X74930000Y-125730000D03*
X72390000Y-125730000D03*
X69850000Y-125730000D03*
X67310000Y-125730000D03*
X64770000Y-125730000D03*
X62230000Y-125730000D03*
X59690000Y-125730000D03*
D12*
X129540000Y-135890000D03*
X132080000Y-135890000D03*
D13*
X106680000Y-135890000D03*
D12*
X104180000Y-135890000D03*
D11*
X38100000Y-168720000D03*
X36250000Y-169180000D03*
X34810000Y-170450000D03*
X34130000Y-172240000D03*
X34360000Y-174130000D03*
X35450000Y-175710000D03*
X37150000Y-176600000D03*
X39050000Y-176600000D03*
X40750000Y-175710000D03*
X41840000Y-174130000D03*
X42070000Y-172240000D03*
X41390000Y-170450000D03*
X39950000Y-169180000D03*
X58420000Y-168720000D03*
X56570000Y-169180000D03*
X55130000Y-170450000D03*
X54450000Y-172240000D03*
X54680000Y-174130000D03*
X55770000Y-175710000D03*
X57470000Y-176600000D03*
X59370000Y-176600000D03*
X61070000Y-175710000D03*
X62160000Y-174130000D03*
X62390000Y-172240000D03*
X61710000Y-170450000D03*
X60270000Y-169180000D03*
X81280000Y-168720000D03*
X79430000Y-169180000D03*
X77990000Y-170450000D03*
X77310000Y-172240000D03*
X77540000Y-174130000D03*
X78630000Y-175710000D03*
X80330000Y-176600000D03*
X82230000Y-176600000D03*
X83930000Y-175710000D03*
X85020000Y-174130000D03*
X85250000Y-172240000D03*
X84570000Y-170450000D03*
X83130000Y-169180000D03*
X101600000Y-168720000D03*
X99750000Y-169180000D03*
X98310000Y-170450000D03*
X97630000Y-172240000D03*
X97860000Y-174130000D03*
X98950000Y-175710000D03*
X100650000Y-176600000D03*
X102550000Y-176600000D03*
X104250000Y-175710000D03*
X105340000Y-174130000D03*
X105570000Y-172240000D03*
X104890000Y-170450000D03*
X103450000Y-169180000D03*
X124460000Y-168720000D03*
X122610000Y-169180000D03*
X121170000Y-170450000D03*
X120490000Y-172240000D03*
X120720000Y-174130000D03*
X121810000Y-175710000D03*
X123510000Y-176600000D03*
X125410000Y-176600000D03*
X127110000Y-175710000D03*
X128200000Y-174130000D03*
X128430000Y-172240000D03*
X127750000Y-170450000D03*
X126310000Y-169180000D03*
X144780000Y-168720000D03*
X142930000Y-169180000D03*
X141490000Y-170450000D03*
X140810000Y-172240000D03*
X141040000Y-174130000D03*
X142130000Y-175710000D03*
X143830000Y-176600000D03*
X145730000Y-176600000D03*
X147430000Y-175710000D03*
X148520000Y-174130000D03*
X148750000Y-172240000D03*
X148070000Y-170450000D03*
X146630000Y-169180000D03*
X34290000Y-144780000D03*
X36830000Y-144780000D03*
X39370000Y-144780000D03*
X41910000Y-144780000D03*
X44450000Y-144780000D03*
X46990000Y-144780000D03*
X49530000Y-144780000D03*
X52070000Y-144780000D03*
X52070000Y-137160000D03*
X49530000Y-137160000D03*
X46990000Y-137160000D03*
X44450000Y-137160000D03*
X41910000Y-137160000D03*
X39370000Y-137160000D03*
X36830000Y-137160000D03*
X34290000Y-137160000D03*
D14*
X34290000Y-151130000D03*
D15*
X41910000Y-151130000D03*
D14*
X34290000Y-154940000D03*
D15*
X34290000Y-162560000D03*
D14*
X54610000Y-149860000D03*
D15*
X62230000Y-149860000D03*
D14*
X55880000Y-154940000D03*
D15*
X55880000Y-162560000D03*
D14*
X77470000Y-149860000D03*
D15*
X85090000Y-149860000D03*
D14*
X78740000Y-154940000D03*
D15*
X78740000Y-162560000D03*
D14*
X97790000Y-149860000D03*
D15*
X105410000Y-149860000D03*
D14*
X99060000Y-154940000D03*
D15*
X99060000Y-162560000D03*
D14*
X121920000Y-154940000D03*
D15*
X121920000Y-162560000D03*
D14*
X120650000Y-149860000D03*
D15*
X128270000Y-149860000D03*
D14*
X140970000Y-149860000D03*
D15*
X148590000Y-149860000D03*
D14*
X142240000Y-154940000D03*
D15*
X142240000Y-162560000D03*
D11*
X41275000Y-154940000D03*
X38735000Y-154940000D03*
X38735000Y-162560000D03*
X41275000Y-162560000D03*
X62230000Y-154940000D03*
X59690000Y-154940000D03*
X59690000Y-162560000D03*
X62230000Y-162560000D03*
X85090000Y-154940000D03*
X82550000Y-154940000D03*
X82550000Y-162560000D03*
X85090000Y-162560000D03*
X105410000Y-154940000D03*
X102870000Y-154940000D03*
X102870000Y-162560000D03*
X105410000Y-162560000D03*
X128270000Y-154940000D03*
X125730000Y-154940000D03*
X125730000Y-162560000D03*
X128270000Y-162560000D03*
X148590000Y-154940000D03*
X146050000Y-154940000D03*
X146050000Y-162560000D03*
X148590000Y-162560000D03*
D16*
X116840000Y-135890000D03*
D17*
X119380000Y-135890000D03*
X121920000Y-135890000D03*
D11*
X35560000Y-129540000D03*
X38100000Y-129540000D03*
X40640000Y-129540000D03*
X43180000Y-129540000D03*
X45720000Y-129540000D03*
X48260000Y-129540000D03*
X88900000Y-144780000D03*
X93980000Y-144780000D03*
X142240000Y-144780000D03*
X137160000Y-144780000D03*
D18*
X142090000Y-132080000D03*
D19*
X148590000Y-132080000D03*
D20*
X145290000Y-137080000D03*
D21*
X82000000Y-146000000D03*
X148000000Y-146000000D03*
X148000000Y-125000000D03*
X154940000Y-179070000D03*
X27940000Y-179070000D03*
X154940000Y-127000000D03*
X27940000Y-127000000D03*
M02*
