G04 #@! TF.FileFunction,Legend,Top*
%FSLAX46Y46*%
G04 Gerber Fmt 4.6, Leading zero omitted, Abs format (unit mm)*
G04 Created by KiCad (PCBNEW 4.0.7-e2-6376~58~ubuntu16.04.1) date Thu Oct 31 20:50:36 2019*
%MOMM*%
%LPD*%
G01*
G04 APERTURE LIST*
%ADD10C,0.100000*%
%ADD11C,0.120000*%
%ADD12C,0.150000*%
G04 APERTURE END LIST*
D10*
D11*
X130203000Y-135029000D02*
X131377000Y-135029000D01*
X130203000Y-136751000D02*
X131377000Y-136751000D01*
X103124278Y-137069723D02*
G75*
G03X107735580Y-137070000I2305722J1179723D01*
G01*
X103124278Y-134710277D02*
G75*
G02X107735580Y-134710000I2305722J-1179723D01*
G01*
X103124278Y-134710277D02*
G75*
G03X103124420Y-137070000I2305722J-1179723D01*
G01*
X105430000Y-138440000D02*
X105430000Y-133340000D01*
X105390000Y-138440000D02*
X105390000Y-133340000D01*
X105350000Y-138439000D02*
X105350000Y-133341000D01*
X105310000Y-138438000D02*
X105310000Y-133342000D01*
X105270000Y-138436000D02*
X105270000Y-133344000D01*
X105230000Y-138433000D02*
X105230000Y-133347000D01*
X105190000Y-138429000D02*
X105190000Y-133351000D01*
X105150000Y-138425000D02*
X105150000Y-136870000D01*
X105150000Y-134910000D02*
X105150000Y-133355000D01*
X105110000Y-138421000D02*
X105110000Y-136870000D01*
X105110000Y-134910000D02*
X105110000Y-133359000D01*
X105070000Y-138415000D02*
X105070000Y-136870000D01*
X105070000Y-134910000D02*
X105070000Y-133365000D01*
X105030000Y-138409000D02*
X105030000Y-136870000D01*
X105030000Y-134910000D02*
X105030000Y-133371000D01*
X104990000Y-138403000D02*
X104990000Y-136870000D01*
X104990000Y-134910000D02*
X104990000Y-133377000D01*
X104950000Y-138396000D02*
X104950000Y-136870000D01*
X104950000Y-134910000D02*
X104950000Y-133384000D01*
X104910000Y-138388000D02*
X104910000Y-136870000D01*
X104910000Y-134910000D02*
X104910000Y-133392000D01*
X104870000Y-138379000D02*
X104870000Y-136870000D01*
X104870000Y-134910000D02*
X104870000Y-133401000D01*
X104830000Y-138370000D02*
X104830000Y-136870000D01*
X104830000Y-134910000D02*
X104830000Y-133410000D01*
X104790000Y-138360000D02*
X104790000Y-136870000D01*
X104790000Y-134910000D02*
X104790000Y-133420000D01*
X104750000Y-138350000D02*
X104750000Y-136870000D01*
X104750000Y-134910000D02*
X104750000Y-133430000D01*
X104709000Y-138338000D02*
X104709000Y-136870000D01*
X104709000Y-134910000D02*
X104709000Y-133442000D01*
X104669000Y-138326000D02*
X104669000Y-136870000D01*
X104669000Y-134910000D02*
X104669000Y-133454000D01*
X104629000Y-138314000D02*
X104629000Y-136870000D01*
X104629000Y-134910000D02*
X104629000Y-133466000D01*
X104589000Y-138300000D02*
X104589000Y-136870000D01*
X104589000Y-134910000D02*
X104589000Y-133480000D01*
X104549000Y-138286000D02*
X104549000Y-136870000D01*
X104549000Y-134910000D02*
X104549000Y-133494000D01*
X104509000Y-138272000D02*
X104509000Y-136870000D01*
X104509000Y-134910000D02*
X104509000Y-133508000D01*
X104469000Y-138256000D02*
X104469000Y-136870000D01*
X104469000Y-134910000D02*
X104469000Y-133524000D01*
X104429000Y-138240000D02*
X104429000Y-136870000D01*
X104429000Y-134910000D02*
X104429000Y-133540000D01*
X104389000Y-138223000D02*
X104389000Y-136870000D01*
X104389000Y-134910000D02*
X104389000Y-133557000D01*
X104349000Y-138205000D02*
X104349000Y-136870000D01*
X104349000Y-134910000D02*
X104349000Y-133575000D01*
X104309000Y-138186000D02*
X104309000Y-136870000D01*
X104309000Y-134910000D02*
X104309000Y-133594000D01*
X104269000Y-138166000D02*
X104269000Y-136870000D01*
X104269000Y-134910000D02*
X104269000Y-133614000D01*
X104229000Y-138146000D02*
X104229000Y-136870000D01*
X104229000Y-134910000D02*
X104229000Y-133634000D01*
X104189000Y-138124000D02*
X104189000Y-136870000D01*
X104189000Y-134910000D02*
X104189000Y-133656000D01*
X104149000Y-138102000D02*
X104149000Y-136870000D01*
X104149000Y-134910000D02*
X104149000Y-133678000D01*
X104109000Y-138079000D02*
X104109000Y-136870000D01*
X104109000Y-134910000D02*
X104109000Y-133701000D01*
X104069000Y-138055000D02*
X104069000Y-136870000D01*
X104069000Y-134910000D02*
X104069000Y-133725000D01*
X104029000Y-138030000D02*
X104029000Y-136870000D01*
X104029000Y-134910000D02*
X104029000Y-133750000D01*
X103989000Y-138003000D02*
X103989000Y-136870000D01*
X103989000Y-134910000D02*
X103989000Y-133777000D01*
X103949000Y-137976000D02*
X103949000Y-136870000D01*
X103949000Y-134910000D02*
X103949000Y-133804000D01*
X103909000Y-137948000D02*
X103909000Y-136870000D01*
X103909000Y-134910000D02*
X103909000Y-133832000D01*
X103869000Y-137918000D02*
X103869000Y-136870000D01*
X103869000Y-134910000D02*
X103869000Y-133862000D01*
X103829000Y-137887000D02*
X103829000Y-136870000D01*
X103829000Y-134910000D02*
X103829000Y-133893000D01*
X103789000Y-137855000D02*
X103789000Y-136870000D01*
X103789000Y-134910000D02*
X103789000Y-133925000D01*
X103749000Y-137822000D02*
X103749000Y-136870000D01*
X103749000Y-134910000D02*
X103749000Y-133958000D01*
X103709000Y-137787000D02*
X103709000Y-136870000D01*
X103709000Y-134910000D02*
X103709000Y-133993000D01*
X103669000Y-137751000D02*
X103669000Y-136870000D01*
X103669000Y-134910000D02*
X103669000Y-134029000D01*
X103629000Y-137713000D02*
X103629000Y-136870000D01*
X103629000Y-134910000D02*
X103629000Y-134067000D01*
X103589000Y-137673000D02*
X103589000Y-136870000D01*
X103589000Y-134910000D02*
X103589000Y-134107000D01*
X103549000Y-137632000D02*
X103549000Y-136870000D01*
X103549000Y-134910000D02*
X103549000Y-134148000D01*
X103509000Y-137589000D02*
X103509000Y-136870000D01*
X103509000Y-134910000D02*
X103509000Y-134191000D01*
X103469000Y-137544000D02*
X103469000Y-136870000D01*
X103469000Y-134910000D02*
X103469000Y-134236000D01*
X103429000Y-137496000D02*
X103429000Y-136870000D01*
X103429000Y-134910000D02*
X103429000Y-134284000D01*
X103389000Y-137446000D02*
X103389000Y-136870000D01*
X103389000Y-134910000D02*
X103389000Y-134334000D01*
X103349000Y-137394000D02*
X103349000Y-136870000D01*
X103349000Y-134910000D02*
X103349000Y-134386000D01*
X103309000Y-137338000D02*
X103309000Y-136870000D01*
X103309000Y-134910000D02*
X103309000Y-134442000D01*
X103269000Y-137280000D02*
X103269000Y-136870000D01*
X103269000Y-134910000D02*
X103269000Y-134500000D01*
X103229000Y-137217000D02*
X103229000Y-136870000D01*
X103229000Y-134910000D02*
X103229000Y-134563000D01*
X103189000Y-137151000D02*
X103189000Y-134629000D01*
X103149000Y-137079000D02*
X103149000Y-134701000D01*
X103109000Y-137002000D02*
X103109000Y-134778000D01*
X103069000Y-136918000D02*
X103069000Y-134862000D01*
X103029000Y-136824000D02*
X103029000Y-134956000D01*
X102989000Y-136719000D02*
X102989000Y-135061000D01*
X102949000Y-136597000D02*
X102949000Y-135183000D01*
X102909000Y-136449000D02*
X102909000Y-135331000D01*
X102869000Y-136244000D02*
X102869000Y-135536000D01*
X108880000Y-135890000D02*
X107680000Y-135890000D01*
X108280000Y-136540000D02*
X108280000Y-135240000D01*
D12*
X42100000Y-172720000D02*
G75*
G03X42100000Y-172720000I-4000000J0D01*
G01*
X62420000Y-172720000D02*
G75*
G03X62420000Y-172720000I-4000000J0D01*
G01*
X85280000Y-172720000D02*
G75*
G03X85280000Y-172720000I-4000000J0D01*
G01*
X105600000Y-172720000D02*
G75*
G03X105600000Y-172720000I-4000000J0D01*
G01*
X128460000Y-172720000D02*
G75*
G03X128460000Y-172720000I-4000000J0D01*
G01*
X148780000Y-172720000D02*
G75*
G03X148780000Y-172720000I-4000000J0D01*
G01*
D11*
X36240000Y-150270000D02*
X36240000Y-151990000D01*
X36240000Y-151990000D02*
X39960000Y-151990000D01*
X39960000Y-151990000D02*
X39960000Y-150270000D01*
X39960000Y-150270000D02*
X36240000Y-150270000D01*
X35170000Y-151130000D02*
X36240000Y-151130000D01*
X41030000Y-151130000D02*
X39960000Y-151130000D01*
X35150000Y-156890000D02*
X33430000Y-156890000D01*
X33430000Y-156890000D02*
X33430000Y-160610000D01*
X33430000Y-160610000D02*
X35150000Y-160610000D01*
X35150000Y-160610000D02*
X35150000Y-156890000D01*
X34290000Y-155820000D02*
X34290000Y-156890000D01*
X34290000Y-161680000D02*
X34290000Y-160610000D01*
X56560000Y-149000000D02*
X56560000Y-150720000D01*
X56560000Y-150720000D02*
X60280000Y-150720000D01*
X60280000Y-150720000D02*
X60280000Y-149000000D01*
X60280000Y-149000000D02*
X56560000Y-149000000D01*
X55490000Y-149860000D02*
X56560000Y-149860000D01*
X61350000Y-149860000D02*
X60280000Y-149860000D01*
X56740000Y-156890000D02*
X55020000Y-156890000D01*
X55020000Y-156890000D02*
X55020000Y-160610000D01*
X55020000Y-160610000D02*
X56740000Y-160610000D01*
X56740000Y-160610000D02*
X56740000Y-156890000D01*
X55880000Y-155820000D02*
X55880000Y-156890000D01*
X55880000Y-161680000D02*
X55880000Y-160610000D01*
X79420000Y-149000000D02*
X79420000Y-150720000D01*
X79420000Y-150720000D02*
X83140000Y-150720000D01*
X83140000Y-150720000D02*
X83140000Y-149000000D01*
X83140000Y-149000000D02*
X79420000Y-149000000D01*
X78350000Y-149860000D02*
X79420000Y-149860000D01*
X84210000Y-149860000D02*
X83140000Y-149860000D01*
X79600000Y-156890000D02*
X77880000Y-156890000D01*
X77880000Y-156890000D02*
X77880000Y-160610000D01*
X77880000Y-160610000D02*
X79600000Y-160610000D01*
X79600000Y-160610000D02*
X79600000Y-156890000D01*
X78740000Y-155820000D02*
X78740000Y-156890000D01*
X78740000Y-161680000D02*
X78740000Y-160610000D01*
X99740000Y-149000000D02*
X99740000Y-150720000D01*
X99740000Y-150720000D02*
X103460000Y-150720000D01*
X103460000Y-150720000D02*
X103460000Y-149000000D01*
X103460000Y-149000000D02*
X99740000Y-149000000D01*
X98670000Y-149860000D02*
X99740000Y-149860000D01*
X104530000Y-149860000D02*
X103460000Y-149860000D01*
X99920000Y-156890000D02*
X98200000Y-156890000D01*
X98200000Y-156890000D02*
X98200000Y-160610000D01*
X98200000Y-160610000D02*
X99920000Y-160610000D01*
X99920000Y-160610000D02*
X99920000Y-156890000D01*
X99060000Y-155820000D02*
X99060000Y-156890000D01*
X99060000Y-161680000D02*
X99060000Y-160610000D01*
X122780000Y-156890000D02*
X121060000Y-156890000D01*
X121060000Y-156890000D02*
X121060000Y-160610000D01*
X121060000Y-160610000D02*
X122780000Y-160610000D01*
X122780000Y-160610000D02*
X122780000Y-156890000D01*
X121920000Y-155820000D02*
X121920000Y-156890000D01*
X121920000Y-161680000D02*
X121920000Y-160610000D01*
X122600000Y-149000000D02*
X122600000Y-150720000D01*
X122600000Y-150720000D02*
X126320000Y-150720000D01*
X126320000Y-150720000D02*
X126320000Y-149000000D01*
X126320000Y-149000000D02*
X122600000Y-149000000D01*
X121530000Y-149860000D02*
X122600000Y-149860000D01*
X127390000Y-149860000D02*
X126320000Y-149860000D01*
X142920000Y-149000000D02*
X142920000Y-150720000D01*
X142920000Y-150720000D02*
X146640000Y-150720000D01*
X146640000Y-150720000D02*
X146640000Y-149000000D01*
X146640000Y-149000000D02*
X142920000Y-149000000D01*
X141850000Y-149860000D02*
X142920000Y-149860000D01*
X147710000Y-149860000D02*
X146640000Y-149860000D01*
X143100000Y-156890000D02*
X141380000Y-156890000D01*
X141380000Y-156890000D02*
X141380000Y-160610000D01*
X141380000Y-160610000D02*
X143100000Y-160610000D01*
X143100000Y-160610000D02*
X143100000Y-156890000D01*
X142240000Y-155820000D02*
X142240000Y-156890000D01*
X142240000Y-161680000D02*
X142240000Y-160610000D01*
X114260000Y-133270000D02*
X124500000Y-133270000D01*
X114260000Y-137911000D02*
X124500000Y-137911000D01*
X114260000Y-133270000D02*
X114260000Y-137911000D01*
X124500000Y-133270000D02*
X124500000Y-137911000D01*
X114260000Y-134780000D02*
X124500000Y-134780000D01*
X117530000Y-133270000D02*
X117530000Y-134780000D01*
X121231000Y-133270000D02*
X121231000Y-134780000D01*
D12*
X76073095Y-122507381D02*
X76073095Y-123316905D01*
X76120714Y-123412143D01*
X76168333Y-123459762D01*
X76263571Y-123507381D01*
X76454048Y-123507381D01*
X76549286Y-123459762D01*
X76596905Y-123412143D01*
X76644524Y-123316905D01*
X76644524Y-122507381D01*
X77025476Y-122507381D02*
X77692143Y-122507381D01*
X77263571Y-123507381D01*
X129099524Y-133327619D02*
X129147143Y-133280000D01*
X129242381Y-133232381D01*
X129480477Y-133232381D01*
X129575715Y-133280000D01*
X129623334Y-133327619D01*
X129670953Y-133422857D01*
X129670953Y-133518095D01*
X129623334Y-133660952D01*
X129051905Y-134232381D01*
X129670953Y-134232381D01*
X130051905Y-133327619D02*
X130099524Y-133280000D01*
X130194762Y-133232381D01*
X130432858Y-133232381D01*
X130528096Y-133280000D01*
X130575715Y-133327619D01*
X130623334Y-133422857D01*
X130623334Y-133518095D01*
X130575715Y-133660952D01*
X130004286Y-134232381D01*
X130623334Y-134232381D01*
X131480477Y-133565714D02*
X131480477Y-134232381D01*
X131051905Y-133565714D02*
X131051905Y-134089524D01*
X131099524Y-134184762D01*
X131194762Y-134232381D01*
X131337620Y-134232381D01*
X131432858Y-134184762D01*
X131480477Y-134137143D01*
X132480477Y-134232381D02*
X131909048Y-134232381D01*
X132194762Y-134232381D02*
X132194762Y-133232381D01*
X132099524Y-133375238D01*
X132004286Y-133470476D01*
X131909048Y-133518095D01*
X104215715Y-139485714D02*
X104215715Y-140152381D01*
X103977619Y-139104762D02*
X103739524Y-139819048D01*
X104358572Y-139819048D01*
X104644286Y-139152381D02*
X105310953Y-139152381D01*
X104882381Y-140152381D01*
X106120477Y-139485714D02*
X106120477Y-140152381D01*
X105691905Y-139485714D02*
X105691905Y-140009524D01*
X105739524Y-140104762D01*
X105834762Y-140152381D01*
X105977620Y-140152381D01*
X106072858Y-140104762D01*
X106120477Y-140057143D01*
X107120477Y-140152381D02*
X106549048Y-140152381D01*
X106834762Y-140152381D02*
X106834762Y-139152381D01*
X106739524Y-139295238D01*
X106644286Y-139390476D01*
X106549048Y-139438095D01*
X36028572Y-180792381D02*
X36028572Y-179792381D01*
X36600001Y-180792381D01*
X36600001Y-179792381D01*
X37076191Y-180792381D02*
X37076191Y-180125714D01*
X37076191Y-179792381D02*
X37028572Y-179840000D01*
X37076191Y-179887619D01*
X37123810Y-179840000D01*
X37076191Y-179792381D01*
X37076191Y-179887619D01*
X37457143Y-180792381D02*
X37980953Y-180125714D01*
X37457143Y-180125714D02*
X37980953Y-180792381D01*
X38361905Y-180792381D02*
X38361905Y-180125714D01*
X38361905Y-179792381D02*
X38314286Y-179840000D01*
X38361905Y-179887619D01*
X38409524Y-179840000D01*
X38361905Y-179792381D01*
X38361905Y-179887619D01*
X39219048Y-180744762D02*
X39123810Y-180792381D01*
X38933333Y-180792381D01*
X38838095Y-180744762D01*
X38790476Y-180649524D01*
X38790476Y-180268571D01*
X38838095Y-180173333D01*
X38933333Y-180125714D01*
X39123810Y-180125714D01*
X39219048Y-180173333D01*
X39266667Y-180268571D01*
X39266667Y-180363810D01*
X38790476Y-180459048D01*
X40219048Y-180792381D02*
X39647619Y-180792381D01*
X39933333Y-180792381D02*
X39933333Y-179792381D01*
X39838095Y-179935238D01*
X39742857Y-180030476D01*
X39647619Y-180078095D01*
X56348572Y-180792381D02*
X56348572Y-179792381D01*
X56920001Y-180792381D01*
X56920001Y-179792381D01*
X57396191Y-180792381D02*
X57396191Y-180125714D01*
X57396191Y-179792381D02*
X57348572Y-179840000D01*
X57396191Y-179887619D01*
X57443810Y-179840000D01*
X57396191Y-179792381D01*
X57396191Y-179887619D01*
X57777143Y-180792381D02*
X58300953Y-180125714D01*
X57777143Y-180125714D02*
X58300953Y-180792381D01*
X58681905Y-180792381D02*
X58681905Y-180125714D01*
X58681905Y-179792381D02*
X58634286Y-179840000D01*
X58681905Y-179887619D01*
X58729524Y-179840000D01*
X58681905Y-179792381D01*
X58681905Y-179887619D01*
X59539048Y-180744762D02*
X59443810Y-180792381D01*
X59253333Y-180792381D01*
X59158095Y-180744762D01*
X59110476Y-180649524D01*
X59110476Y-180268571D01*
X59158095Y-180173333D01*
X59253333Y-180125714D01*
X59443810Y-180125714D01*
X59539048Y-180173333D01*
X59586667Y-180268571D01*
X59586667Y-180363810D01*
X59110476Y-180459048D01*
X59967619Y-179887619D02*
X60015238Y-179840000D01*
X60110476Y-179792381D01*
X60348572Y-179792381D01*
X60443810Y-179840000D01*
X60491429Y-179887619D01*
X60539048Y-179982857D01*
X60539048Y-180078095D01*
X60491429Y-180220952D01*
X59920000Y-180792381D01*
X60539048Y-180792381D01*
X79208572Y-180792381D02*
X79208572Y-179792381D01*
X79780001Y-180792381D01*
X79780001Y-179792381D01*
X80256191Y-180792381D02*
X80256191Y-180125714D01*
X80256191Y-179792381D02*
X80208572Y-179840000D01*
X80256191Y-179887619D01*
X80303810Y-179840000D01*
X80256191Y-179792381D01*
X80256191Y-179887619D01*
X80637143Y-180792381D02*
X81160953Y-180125714D01*
X80637143Y-180125714D02*
X81160953Y-180792381D01*
X81541905Y-180792381D02*
X81541905Y-180125714D01*
X81541905Y-179792381D02*
X81494286Y-179840000D01*
X81541905Y-179887619D01*
X81589524Y-179840000D01*
X81541905Y-179792381D01*
X81541905Y-179887619D01*
X82399048Y-180744762D02*
X82303810Y-180792381D01*
X82113333Y-180792381D01*
X82018095Y-180744762D01*
X81970476Y-180649524D01*
X81970476Y-180268571D01*
X82018095Y-180173333D01*
X82113333Y-180125714D01*
X82303810Y-180125714D01*
X82399048Y-180173333D01*
X82446667Y-180268571D01*
X82446667Y-180363810D01*
X81970476Y-180459048D01*
X82780000Y-179792381D02*
X83399048Y-179792381D01*
X83065714Y-180173333D01*
X83208572Y-180173333D01*
X83303810Y-180220952D01*
X83351429Y-180268571D01*
X83399048Y-180363810D01*
X83399048Y-180601905D01*
X83351429Y-180697143D01*
X83303810Y-180744762D01*
X83208572Y-180792381D01*
X82922857Y-180792381D01*
X82827619Y-180744762D01*
X82780000Y-180697143D01*
X99528572Y-180792381D02*
X99528572Y-179792381D01*
X100100001Y-180792381D01*
X100100001Y-179792381D01*
X100576191Y-180792381D02*
X100576191Y-180125714D01*
X100576191Y-179792381D02*
X100528572Y-179840000D01*
X100576191Y-179887619D01*
X100623810Y-179840000D01*
X100576191Y-179792381D01*
X100576191Y-179887619D01*
X100957143Y-180792381D02*
X101480953Y-180125714D01*
X100957143Y-180125714D02*
X101480953Y-180792381D01*
X101861905Y-180792381D02*
X101861905Y-180125714D01*
X101861905Y-179792381D02*
X101814286Y-179840000D01*
X101861905Y-179887619D01*
X101909524Y-179840000D01*
X101861905Y-179792381D01*
X101861905Y-179887619D01*
X102719048Y-180744762D02*
X102623810Y-180792381D01*
X102433333Y-180792381D01*
X102338095Y-180744762D01*
X102290476Y-180649524D01*
X102290476Y-180268571D01*
X102338095Y-180173333D01*
X102433333Y-180125714D01*
X102623810Y-180125714D01*
X102719048Y-180173333D01*
X102766667Y-180268571D01*
X102766667Y-180363810D01*
X102290476Y-180459048D01*
X103623810Y-180125714D02*
X103623810Y-180792381D01*
X103385714Y-179744762D02*
X103147619Y-180459048D01*
X103766667Y-180459048D01*
X122388572Y-180792381D02*
X122388572Y-179792381D01*
X122960001Y-180792381D01*
X122960001Y-179792381D01*
X123436191Y-180792381D02*
X123436191Y-180125714D01*
X123436191Y-179792381D02*
X123388572Y-179840000D01*
X123436191Y-179887619D01*
X123483810Y-179840000D01*
X123436191Y-179792381D01*
X123436191Y-179887619D01*
X123817143Y-180792381D02*
X124340953Y-180125714D01*
X123817143Y-180125714D02*
X124340953Y-180792381D01*
X124721905Y-180792381D02*
X124721905Y-180125714D01*
X124721905Y-179792381D02*
X124674286Y-179840000D01*
X124721905Y-179887619D01*
X124769524Y-179840000D01*
X124721905Y-179792381D01*
X124721905Y-179887619D01*
X125579048Y-180744762D02*
X125483810Y-180792381D01*
X125293333Y-180792381D01*
X125198095Y-180744762D01*
X125150476Y-180649524D01*
X125150476Y-180268571D01*
X125198095Y-180173333D01*
X125293333Y-180125714D01*
X125483810Y-180125714D01*
X125579048Y-180173333D01*
X125626667Y-180268571D01*
X125626667Y-180363810D01*
X125150476Y-180459048D01*
X126531429Y-179792381D02*
X126055238Y-179792381D01*
X126007619Y-180268571D01*
X126055238Y-180220952D01*
X126150476Y-180173333D01*
X126388572Y-180173333D01*
X126483810Y-180220952D01*
X126531429Y-180268571D01*
X126579048Y-180363810D01*
X126579048Y-180601905D01*
X126531429Y-180697143D01*
X126483810Y-180744762D01*
X126388572Y-180792381D01*
X126150476Y-180792381D01*
X126055238Y-180744762D01*
X126007619Y-180697143D01*
X142708572Y-180792381D02*
X142708572Y-179792381D01*
X143280001Y-180792381D01*
X143280001Y-179792381D01*
X143756191Y-180792381D02*
X143756191Y-180125714D01*
X143756191Y-179792381D02*
X143708572Y-179840000D01*
X143756191Y-179887619D01*
X143803810Y-179840000D01*
X143756191Y-179792381D01*
X143756191Y-179887619D01*
X144137143Y-180792381D02*
X144660953Y-180125714D01*
X144137143Y-180125714D02*
X144660953Y-180792381D01*
X145041905Y-180792381D02*
X145041905Y-180125714D01*
X145041905Y-179792381D02*
X144994286Y-179840000D01*
X145041905Y-179887619D01*
X145089524Y-179840000D01*
X145041905Y-179792381D01*
X145041905Y-179887619D01*
X145899048Y-180744762D02*
X145803810Y-180792381D01*
X145613333Y-180792381D01*
X145518095Y-180744762D01*
X145470476Y-180649524D01*
X145470476Y-180268571D01*
X145518095Y-180173333D01*
X145613333Y-180125714D01*
X145803810Y-180125714D01*
X145899048Y-180173333D01*
X145946667Y-180268571D01*
X145946667Y-180363810D01*
X145470476Y-180459048D01*
X146803810Y-179792381D02*
X146613333Y-179792381D01*
X146518095Y-179840000D01*
X146470476Y-179887619D01*
X146375238Y-180030476D01*
X146327619Y-180220952D01*
X146327619Y-180601905D01*
X146375238Y-180697143D01*
X146422857Y-180744762D01*
X146518095Y-180792381D01*
X146708572Y-180792381D01*
X146803810Y-180744762D01*
X146851429Y-180697143D01*
X146899048Y-180601905D01*
X146899048Y-180363810D01*
X146851429Y-180268571D01*
X146803810Y-180220952D01*
X146708572Y-180173333D01*
X146518095Y-180173333D01*
X146422857Y-180220952D01*
X146375238Y-180268571D01*
X146327619Y-180363810D01*
X32798571Y-135072381D02*
X32798571Y-134072381D01*
X33370000Y-135072381D01*
X33370000Y-134072381D01*
X33846190Y-135072381D02*
X33846190Y-134405714D01*
X33846190Y-134072381D02*
X33798571Y-134120000D01*
X33846190Y-134167619D01*
X33893809Y-134120000D01*
X33846190Y-134072381D01*
X33846190Y-134167619D01*
X34227142Y-135072381D02*
X34750952Y-134405714D01*
X34227142Y-134405714D02*
X34750952Y-135072381D01*
X35131904Y-135072381D02*
X35131904Y-134405714D01*
X35131904Y-134072381D02*
X35084285Y-134120000D01*
X35131904Y-134167619D01*
X35179523Y-134120000D01*
X35131904Y-134072381D01*
X35131904Y-134167619D01*
X35989047Y-135024762D02*
X35893809Y-135072381D01*
X35703332Y-135072381D01*
X35608094Y-135024762D01*
X35560475Y-134929524D01*
X35560475Y-134548571D01*
X35608094Y-134453333D01*
X35703332Y-134405714D01*
X35893809Y-134405714D01*
X35989047Y-134453333D01*
X36036666Y-134548571D01*
X36036666Y-134643810D01*
X35560475Y-134739048D01*
X36227142Y-135167619D02*
X36989047Y-135167619D01*
X37084285Y-134405714D02*
X37465237Y-134405714D01*
X37227142Y-134072381D02*
X37227142Y-134929524D01*
X37274761Y-135024762D01*
X37369999Y-135072381D01*
X37465237Y-135072381D01*
X38227143Y-134405714D02*
X38227143Y-135072381D01*
X37798571Y-134405714D02*
X37798571Y-134929524D01*
X37846190Y-135024762D01*
X37941428Y-135072381D01*
X38084286Y-135072381D01*
X38179524Y-135024762D01*
X38227143Y-134977143D01*
X38703333Y-135072381D02*
X38703333Y-134072381D01*
X38703333Y-134453333D02*
X38798571Y-134405714D01*
X38989048Y-134405714D01*
X39084286Y-134453333D01*
X39131905Y-134500952D01*
X39179524Y-134596190D01*
X39179524Y-134881905D01*
X39131905Y-134977143D01*
X39084286Y-135024762D01*
X38989048Y-135072381D01*
X38798571Y-135072381D01*
X38703333Y-135024762D01*
X39989048Y-135024762D02*
X39893810Y-135072381D01*
X39703333Y-135072381D01*
X39608095Y-135024762D01*
X39560476Y-134929524D01*
X39560476Y-134548571D01*
X39608095Y-134453333D01*
X39703333Y-134405714D01*
X39893810Y-134405714D01*
X39989048Y-134453333D01*
X40036667Y-134548571D01*
X40036667Y-134643810D01*
X39560476Y-134739048D01*
X40227143Y-135167619D02*
X40989048Y-135167619D01*
X41655715Y-135072381D02*
X41655715Y-134072381D01*
X41655715Y-135024762D02*
X41560477Y-135072381D01*
X41370000Y-135072381D01*
X41274762Y-135024762D01*
X41227143Y-134977143D01*
X41179524Y-134881905D01*
X41179524Y-134596190D01*
X41227143Y-134500952D01*
X41274762Y-134453333D01*
X41370000Y-134405714D01*
X41560477Y-134405714D01*
X41655715Y-134453333D01*
X42131905Y-135072381D02*
X42131905Y-134405714D01*
X42131905Y-134596190D02*
X42179524Y-134500952D01*
X42227143Y-134453333D01*
X42322381Y-134405714D01*
X42417620Y-134405714D01*
X42750953Y-135072381D02*
X42750953Y-134405714D01*
X42750953Y-134072381D02*
X42703334Y-134120000D01*
X42750953Y-134167619D01*
X42798572Y-134120000D01*
X42750953Y-134072381D01*
X42750953Y-134167619D01*
X43131905Y-134405714D02*
X43370000Y-135072381D01*
X43608096Y-134405714D01*
X44370001Y-135024762D02*
X44274763Y-135072381D01*
X44084286Y-135072381D01*
X43989048Y-135024762D01*
X43941429Y-134929524D01*
X43941429Y-134548571D01*
X43989048Y-134453333D01*
X44084286Y-134405714D01*
X44274763Y-134405714D01*
X44370001Y-134453333D01*
X44417620Y-134548571D01*
X44417620Y-134643810D01*
X43941429Y-134739048D01*
X44846191Y-135072381D02*
X44846191Y-134405714D01*
X44846191Y-134596190D02*
X44893810Y-134500952D01*
X44941429Y-134453333D01*
X45036667Y-134405714D01*
X45131906Y-134405714D01*
X45989049Y-135072381D02*
X45417620Y-135072381D01*
X45703334Y-135072381D02*
X45703334Y-134072381D01*
X45608096Y-134215238D01*
X45512858Y-134310476D01*
X45417620Y-134358095D01*
X37933334Y-149722381D02*
X37600000Y-149246190D01*
X37361905Y-149722381D02*
X37361905Y-148722381D01*
X37742858Y-148722381D01*
X37838096Y-148770000D01*
X37885715Y-148817619D01*
X37933334Y-148912857D01*
X37933334Y-149055714D01*
X37885715Y-149150952D01*
X37838096Y-149198571D01*
X37742858Y-149246190D01*
X37361905Y-149246190D01*
X38885715Y-149722381D02*
X38314286Y-149722381D01*
X38600000Y-149722381D02*
X38600000Y-148722381D01*
X38504762Y-148865238D01*
X38409524Y-148960476D01*
X38314286Y-149008095D01*
X36602381Y-158916666D02*
X36126190Y-159250000D01*
X36602381Y-159488095D02*
X35602381Y-159488095D01*
X35602381Y-159107142D01*
X35650000Y-159011904D01*
X35697619Y-158964285D01*
X35792857Y-158916666D01*
X35935714Y-158916666D01*
X36030952Y-158964285D01*
X36078571Y-159011904D01*
X36126190Y-159107142D01*
X36126190Y-159488095D01*
X35697619Y-158535714D02*
X35650000Y-158488095D01*
X35602381Y-158392857D01*
X35602381Y-158154761D01*
X35650000Y-158059523D01*
X35697619Y-158011904D01*
X35792857Y-157964285D01*
X35888095Y-157964285D01*
X36030952Y-158011904D01*
X36602381Y-158583333D01*
X36602381Y-157964285D01*
X58253334Y-148452381D02*
X57920000Y-147976190D01*
X57681905Y-148452381D02*
X57681905Y-147452381D01*
X58062858Y-147452381D01*
X58158096Y-147500000D01*
X58205715Y-147547619D01*
X58253334Y-147642857D01*
X58253334Y-147785714D01*
X58205715Y-147880952D01*
X58158096Y-147928571D01*
X58062858Y-147976190D01*
X57681905Y-147976190D01*
X58586667Y-147452381D02*
X59205715Y-147452381D01*
X58872381Y-147833333D01*
X59015239Y-147833333D01*
X59110477Y-147880952D01*
X59158096Y-147928571D01*
X59205715Y-148023810D01*
X59205715Y-148261905D01*
X59158096Y-148357143D01*
X59110477Y-148404762D01*
X59015239Y-148452381D01*
X58729524Y-148452381D01*
X58634286Y-148404762D01*
X58586667Y-148357143D01*
X58192381Y-158916666D02*
X57716190Y-159250000D01*
X58192381Y-159488095D02*
X57192381Y-159488095D01*
X57192381Y-159107142D01*
X57240000Y-159011904D01*
X57287619Y-158964285D01*
X57382857Y-158916666D01*
X57525714Y-158916666D01*
X57620952Y-158964285D01*
X57668571Y-159011904D01*
X57716190Y-159107142D01*
X57716190Y-159488095D01*
X57525714Y-158059523D02*
X58192381Y-158059523D01*
X57144762Y-158297619D02*
X57859048Y-158535714D01*
X57859048Y-157916666D01*
X77303334Y-152172381D02*
X76970000Y-151696190D01*
X76731905Y-152172381D02*
X76731905Y-151172381D01*
X77112858Y-151172381D01*
X77208096Y-151220000D01*
X77255715Y-151267619D01*
X77303334Y-151362857D01*
X77303334Y-151505714D01*
X77255715Y-151600952D01*
X77208096Y-151648571D01*
X77112858Y-151696190D01*
X76731905Y-151696190D01*
X78208096Y-151172381D02*
X77731905Y-151172381D01*
X77684286Y-151648571D01*
X77731905Y-151600952D01*
X77827143Y-151553333D01*
X78065239Y-151553333D01*
X78160477Y-151600952D01*
X78208096Y-151648571D01*
X78255715Y-151743810D01*
X78255715Y-151981905D01*
X78208096Y-152077143D01*
X78160477Y-152124762D01*
X78065239Y-152172381D01*
X77827143Y-152172381D01*
X77731905Y-152124762D01*
X77684286Y-152077143D01*
X81052381Y-158916666D02*
X80576190Y-159250000D01*
X81052381Y-159488095D02*
X80052381Y-159488095D01*
X80052381Y-159107142D01*
X80100000Y-159011904D01*
X80147619Y-158964285D01*
X80242857Y-158916666D01*
X80385714Y-158916666D01*
X80480952Y-158964285D01*
X80528571Y-159011904D01*
X80576190Y-159107142D01*
X80576190Y-159488095D01*
X80052381Y-158059523D02*
X80052381Y-158250000D01*
X80100000Y-158345238D01*
X80147619Y-158392857D01*
X80290476Y-158488095D01*
X80480952Y-158535714D01*
X80861905Y-158535714D01*
X80957143Y-158488095D01*
X81004762Y-158440476D01*
X81052381Y-158345238D01*
X81052381Y-158154761D01*
X81004762Y-158059523D01*
X80957143Y-158011904D01*
X80861905Y-157964285D01*
X80623810Y-157964285D01*
X80528571Y-158011904D01*
X80480952Y-158059523D01*
X80433333Y-158154761D01*
X80433333Y-158345238D01*
X80480952Y-158440476D01*
X80528571Y-158488095D01*
X80623810Y-158535714D01*
X101433334Y-148452381D02*
X101100000Y-147976190D01*
X100861905Y-148452381D02*
X100861905Y-147452381D01*
X101242858Y-147452381D01*
X101338096Y-147500000D01*
X101385715Y-147547619D01*
X101433334Y-147642857D01*
X101433334Y-147785714D01*
X101385715Y-147880952D01*
X101338096Y-147928571D01*
X101242858Y-147976190D01*
X100861905Y-147976190D01*
X101766667Y-147452381D02*
X102433334Y-147452381D01*
X102004762Y-148452381D01*
X101372381Y-158916666D02*
X100896190Y-159250000D01*
X101372381Y-159488095D02*
X100372381Y-159488095D01*
X100372381Y-159107142D01*
X100420000Y-159011904D01*
X100467619Y-158964285D01*
X100562857Y-158916666D01*
X100705714Y-158916666D01*
X100800952Y-158964285D01*
X100848571Y-159011904D01*
X100896190Y-159107142D01*
X100896190Y-159488095D01*
X100800952Y-158345238D02*
X100753333Y-158440476D01*
X100705714Y-158488095D01*
X100610476Y-158535714D01*
X100562857Y-158535714D01*
X100467619Y-158488095D01*
X100420000Y-158440476D01*
X100372381Y-158345238D01*
X100372381Y-158154761D01*
X100420000Y-158059523D01*
X100467619Y-158011904D01*
X100562857Y-157964285D01*
X100610476Y-157964285D01*
X100705714Y-158011904D01*
X100753333Y-158059523D01*
X100800952Y-158154761D01*
X100800952Y-158345238D01*
X100848571Y-158440476D01*
X100896190Y-158488095D01*
X100991429Y-158535714D01*
X101181905Y-158535714D01*
X101277143Y-158488095D01*
X101324762Y-158440476D01*
X101372381Y-158345238D01*
X101372381Y-158154761D01*
X101324762Y-158059523D01*
X101277143Y-158011904D01*
X101181905Y-157964285D01*
X100991429Y-157964285D01*
X100896190Y-158011904D01*
X100848571Y-158059523D01*
X100800952Y-158154761D01*
X124232381Y-158916666D02*
X123756190Y-159250000D01*
X124232381Y-159488095D02*
X123232381Y-159488095D01*
X123232381Y-159107142D01*
X123280000Y-159011904D01*
X123327619Y-158964285D01*
X123422857Y-158916666D01*
X123565714Y-158916666D01*
X123660952Y-158964285D01*
X123708571Y-159011904D01*
X123756190Y-159107142D01*
X123756190Y-159488095D01*
X124232381Y-158440476D02*
X124232381Y-158250000D01*
X124184762Y-158154761D01*
X124137143Y-158107142D01*
X123994286Y-158011904D01*
X123803810Y-157964285D01*
X123422857Y-157964285D01*
X123327619Y-158011904D01*
X123280000Y-158059523D01*
X123232381Y-158154761D01*
X123232381Y-158345238D01*
X123280000Y-158440476D01*
X123327619Y-158488095D01*
X123422857Y-158535714D01*
X123660952Y-158535714D01*
X123756190Y-158488095D01*
X123803810Y-158440476D01*
X123851429Y-158345238D01*
X123851429Y-158154761D01*
X123803810Y-158059523D01*
X123756190Y-158011904D01*
X123660952Y-157964285D01*
X123817143Y-148452381D02*
X123483809Y-147976190D01*
X123245714Y-148452381D02*
X123245714Y-147452381D01*
X123626667Y-147452381D01*
X123721905Y-147500000D01*
X123769524Y-147547619D01*
X123817143Y-147642857D01*
X123817143Y-147785714D01*
X123769524Y-147880952D01*
X123721905Y-147928571D01*
X123626667Y-147976190D01*
X123245714Y-147976190D01*
X124769524Y-148452381D02*
X124198095Y-148452381D01*
X124483809Y-148452381D02*
X124483809Y-147452381D01*
X124388571Y-147595238D01*
X124293333Y-147690476D01*
X124198095Y-147738095D01*
X125388571Y-147452381D02*
X125483810Y-147452381D01*
X125579048Y-147500000D01*
X125626667Y-147547619D01*
X125674286Y-147642857D01*
X125721905Y-147833333D01*
X125721905Y-148071429D01*
X125674286Y-148261905D01*
X125626667Y-148357143D01*
X125579048Y-148404762D01*
X125483810Y-148452381D01*
X125388571Y-148452381D01*
X125293333Y-148404762D01*
X125245714Y-148357143D01*
X125198095Y-148261905D01*
X125150476Y-148071429D01*
X125150476Y-147833333D01*
X125198095Y-147642857D01*
X125245714Y-147547619D01*
X125293333Y-147500000D01*
X125388571Y-147452381D01*
X144137143Y-148452381D02*
X143803809Y-147976190D01*
X143565714Y-148452381D02*
X143565714Y-147452381D01*
X143946667Y-147452381D01*
X144041905Y-147500000D01*
X144089524Y-147547619D01*
X144137143Y-147642857D01*
X144137143Y-147785714D01*
X144089524Y-147880952D01*
X144041905Y-147928571D01*
X143946667Y-147976190D01*
X143565714Y-147976190D01*
X145089524Y-148452381D02*
X144518095Y-148452381D01*
X144803809Y-148452381D02*
X144803809Y-147452381D01*
X144708571Y-147595238D01*
X144613333Y-147690476D01*
X144518095Y-147738095D01*
X146041905Y-148452381D02*
X145470476Y-148452381D01*
X145756190Y-148452381D02*
X145756190Y-147452381D01*
X145660952Y-147595238D01*
X145565714Y-147690476D01*
X145470476Y-147738095D01*
X144552381Y-159392857D02*
X144076190Y-159726191D01*
X144552381Y-159964286D02*
X143552381Y-159964286D01*
X143552381Y-159583333D01*
X143600000Y-159488095D01*
X143647619Y-159440476D01*
X143742857Y-159392857D01*
X143885714Y-159392857D01*
X143980952Y-159440476D01*
X144028571Y-159488095D01*
X144076190Y-159583333D01*
X144076190Y-159964286D01*
X144552381Y-158440476D02*
X144552381Y-159011905D01*
X144552381Y-158726191D02*
X143552381Y-158726191D01*
X143695238Y-158821429D01*
X143790476Y-158916667D01*
X143838095Y-159011905D01*
X143647619Y-158059524D02*
X143600000Y-158011905D01*
X143552381Y-157916667D01*
X143552381Y-157678571D01*
X143600000Y-157583333D01*
X143647619Y-157535714D01*
X143742857Y-157488095D01*
X143838095Y-157488095D01*
X143980952Y-157535714D01*
X144552381Y-158107143D01*
X144552381Y-157488095D01*
X42418095Y-156932381D02*
X42418095Y-157741905D01*
X42465714Y-157837143D01*
X42513333Y-157884762D01*
X42608571Y-157932381D01*
X42799048Y-157932381D01*
X42894286Y-157884762D01*
X42941905Y-157837143D01*
X42989524Y-157741905D01*
X42989524Y-156932381D01*
X43989524Y-157932381D02*
X43418095Y-157932381D01*
X43703809Y-157932381D02*
X43703809Y-156932381D01*
X43608571Y-157075238D01*
X43513333Y-157170476D01*
X43418095Y-157218095D01*
X64008095Y-156932381D02*
X64008095Y-157741905D01*
X64055714Y-157837143D01*
X64103333Y-157884762D01*
X64198571Y-157932381D01*
X64389048Y-157932381D01*
X64484286Y-157884762D01*
X64531905Y-157837143D01*
X64579524Y-157741905D01*
X64579524Y-156932381D01*
X65008095Y-157027619D02*
X65055714Y-156980000D01*
X65150952Y-156932381D01*
X65389048Y-156932381D01*
X65484286Y-156980000D01*
X65531905Y-157027619D01*
X65579524Y-157122857D01*
X65579524Y-157218095D01*
X65531905Y-157360952D01*
X64960476Y-157932381D01*
X65579524Y-157932381D01*
X86868095Y-155662381D02*
X86868095Y-156471905D01*
X86915714Y-156567143D01*
X86963333Y-156614762D01*
X87058571Y-156662381D01*
X87249048Y-156662381D01*
X87344286Y-156614762D01*
X87391905Y-156567143D01*
X87439524Y-156471905D01*
X87439524Y-155662381D01*
X87820476Y-155662381D02*
X88439524Y-155662381D01*
X88106190Y-156043333D01*
X88249048Y-156043333D01*
X88344286Y-156090952D01*
X88391905Y-156138571D01*
X88439524Y-156233810D01*
X88439524Y-156471905D01*
X88391905Y-156567143D01*
X88344286Y-156614762D01*
X88249048Y-156662381D01*
X87963333Y-156662381D01*
X87868095Y-156614762D01*
X87820476Y-156567143D01*
X107188095Y-155662381D02*
X107188095Y-156471905D01*
X107235714Y-156567143D01*
X107283333Y-156614762D01*
X107378571Y-156662381D01*
X107569048Y-156662381D01*
X107664286Y-156614762D01*
X107711905Y-156567143D01*
X107759524Y-156471905D01*
X107759524Y-155662381D01*
X108664286Y-155995714D02*
X108664286Y-156662381D01*
X108426190Y-155614762D02*
X108188095Y-156329048D01*
X108807143Y-156329048D01*
X130048095Y-155662381D02*
X130048095Y-156471905D01*
X130095714Y-156567143D01*
X130143333Y-156614762D01*
X130238571Y-156662381D01*
X130429048Y-156662381D01*
X130524286Y-156614762D01*
X130571905Y-156567143D01*
X130619524Y-156471905D01*
X130619524Y-155662381D01*
X131571905Y-155662381D02*
X131095714Y-155662381D01*
X131048095Y-156138571D01*
X131095714Y-156090952D01*
X131190952Y-156043333D01*
X131429048Y-156043333D01*
X131524286Y-156090952D01*
X131571905Y-156138571D01*
X131619524Y-156233810D01*
X131619524Y-156471905D01*
X131571905Y-156567143D01*
X131524286Y-156614762D01*
X131429048Y-156662381D01*
X131190952Y-156662381D01*
X131095714Y-156614762D01*
X131048095Y-156567143D01*
X146288095Y-151852381D02*
X146288095Y-152661905D01*
X146335714Y-152757143D01*
X146383333Y-152804762D01*
X146478571Y-152852381D01*
X146669048Y-152852381D01*
X146764286Y-152804762D01*
X146811905Y-152757143D01*
X146859524Y-152661905D01*
X146859524Y-151852381D01*
X147764286Y-151852381D02*
X147573809Y-151852381D01*
X147478571Y-151900000D01*
X147430952Y-151947619D01*
X147335714Y-152090476D01*
X147288095Y-152280952D01*
X147288095Y-152661905D01*
X147335714Y-152757143D01*
X147383333Y-152804762D01*
X147478571Y-152852381D01*
X147669048Y-152852381D01*
X147764286Y-152804762D01*
X147811905Y-152757143D01*
X147859524Y-152661905D01*
X147859524Y-152423810D01*
X147811905Y-152328571D01*
X147764286Y-152280952D01*
X147669048Y-152233333D01*
X147478571Y-152233333D01*
X147383333Y-152280952D01*
X147335714Y-152328571D01*
X147288095Y-152423810D01*
X118618095Y-131722381D02*
X118618095Y-132531905D01*
X118665714Y-132627143D01*
X118713333Y-132674762D01*
X118808571Y-132722381D01*
X118999048Y-132722381D01*
X119094286Y-132674762D01*
X119141905Y-132627143D01*
X119189524Y-132531905D01*
X119189524Y-131722381D01*
X119808571Y-132150952D02*
X119713333Y-132103333D01*
X119665714Y-132055714D01*
X119618095Y-131960476D01*
X119618095Y-131912857D01*
X119665714Y-131817619D01*
X119713333Y-131770000D01*
X119808571Y-131722381D01*
X119999048Y-131722381D01*
X120094286Y-131770000D01*
X120141905Y-131817619D01*
X120189524Y-131912857D01*
X120189524Y-131960476D01*
X120141905Y-132055714D01*
X120094286Y-132103333D01*
X119999048Y-132150952D01*
X119808571Y-132150952D01*
X119713333Y-132198571D01*
X119665714Y-132246190D01*
X119618095Y-132341429D01*
X119618095Y-132531905D01*
X119665714Y-132627143D01*
X119713333Y-132674762D01*
X119808571Y-132722381D01*
X119999048Y-132722381D01*
X120094286Y-132674762D01*
X120141905Y-132627143D01*
X120189524Y-132531905D01*
X120189524Y-132341429D01*
X120141905Y-132246190D01*
X120094286Y-132198571D01*
X119999048Y-132150952D01*
X34798095Y-126452381D02*
X34798095Y-127261905D01*
X34845714Y-127357143D01*
X34893333Y-127404762D01*
X34988571Y-127452381D01*
X35179048Y-127452381D01*
X35274286Y-127404762D01*
X35321905Y-127357143D01*
X35369524Y-127261905D01*
X35369524Y-126452381D01*
X35893333Y-127452381D02*
X36083809Y-127452381D01*
X36179048Y-127404762D01*
X36226667Y-127357143D01*
X36321905Y-127214286D01*
X36369524Y-127023810D01*
X36369524Y-126642857D01*
X36321905Y-126547619D01*
X36274286Y-126500000D01*
X36179048Y-126452381D01*
X35988571Y-126452381D01*
X35893333Y-126500000D01*
X35845714Y-126547619D01*
X35798095Y-126642857D01*
X35798095Y-126880952D01*
X35845714Y-126976190D01*
X35893333Y-127023810D01*
X35988571Y-127071429D01*
X36179048Y-127071429D01*
X36274286Y-127023810D01*
X36321905Y-126976190D01*
X36369524Y-126880952D01*
X100361905Y-141692381D02*
X100361905Y-142501905D01*
X100409524Y-142597143D01*
X100457143Y-142644762D01*
X100552381Y-142692381D01*
X100742858Y-142692381D01*
X100838096Y-142644762D01*
X100885715Y-142597143D01*
X100933334Y-142501905D01*
X100933334Y-141692381D01*
X101933334Y-142692381D02*
X101361905Y-142692381D01*
X101647619Y-142692381D02*
X101647619Y-141692381D01*
X101552381Y-141835238D01*
X101457143Y-141930476D01*
X101361905Y-141978095D01*
X102552381Y-141692381D02*
X102647620Y-141692381D01*
X102742858Y-141740000D01*
X102790477Y-141787619D01*
X102838096Y-141882857D01*
X102885715Y-142073333D01*
X102885715Y-142311429D01*
X102838096Y-142501905D01*
X102790477Y-142597143D01*
X102742858Y-142644762D01*
X102647620Y-142692381D01*
X102552381Y-142692381D01*
X102457143Y-142644762D01*
X102409524Y-142597143D01*
X102361905Y-142501905D01*
X102314286Y-142311429D01*
X102314286Y-142073333D01*
X102361905Y-141882857D01*
X102409524Y-141787619D01*
X102457143Y-141740000D01*
X102552381Y-141692381D01*
X139152381Y-132613333D02*
X139866667Y-132613333D01*
X140009524Y-132660953D01*
X140104762Y-132756191D01*
X140152381Y-132899048D01*
X140152381Y-132994286D01*
X140152381Y-131613333D02*
X140152381Y-132184762D01*
X140152381Y-131899048D02*
X139152381Y-131899048D01*
X139295238Y-131994286D01*
X139390476Y-132089524D01*
X139438095Y-132184762D01*
X75666667Y-144602381D02*
X75333333Y-144126190D01*
X75095238Y-144602381D02*
X75095238Y-143602381D01*
X75476191Y-143602381D01*
X75571429Y-143650000D01*
X75619048Y-143697619D01*
X75666667Y-143792857D01*
X75666667Y-143935714D01*
X75619048Y-144030952D01*
X75571429Y-144078571D01*
X75476191Y-144126190D01*
X75095238Y-144126190D01*
X76095238Y-144078571D02*
X76428572Y-144078571D01*
X76571429Y-144602381D02*
X76095238Y-144602381D01*
X76095238Y-143602381D01*
X76571429Y-143602381D01*
X77333334Y-144078571D02*
X77000000Y-144078571D01*
X77000000Y-144602381D02*
X77000000Y-143602381D01*
X77476191Y-143602381D01*
X78000000Y-143602381D02*
X78000000Y-143840476D01*
X77761905Y-143745238D02*
X78000000Y-143840476D01*
X78238096Y-143745238D01*
X77857143Y-144030952D02*
X78000000Y-143840476D01*
X78142858Y-144030952D01*
X78761905Y-143602381D02*
X78761905Y-143840476D01*
X78523810Y-143745238D02*
X78761905Y-143840476D01*
X79000001Y-143745238D01*
X78619048Y-144030952D02*
X78761905Y-143840476D01*
X78904763Y-144030952D01*
X146666667Y-142602381D02*
X146333333Y-142126190D01*
X146095238Y-142602381D02*
X146095238Y-141602381D01*
X146476191Y-141602381D01*
X146571429Y-141650000D01*
X146619048Y-141697619D01*
X146666667Y-141792857D01*
X146666667Y-141935714D01*
X146619048Y-142030952D01*
X146571429Y-142078571D01*
X146476191Y-142126190D01*
X146095238Y-142126190D01*
X147095238Y-142078571D02*
X147428572Y-142078571D01*
X147571429Y-142602381D02*
X147095238Y-142602381D01*
X147095238Y-141602381D01*
X147571429Y-141602381D01*
X148333334Y-142078571D02*
X148000000Y-142078571D01*
X148000000Y-142602381D02*
X148000000Y-141602381D01*
X148476191Y-141602381D01*
X149000000Y-141602381D02*
X149000000Y-141840476D01*
X148761905Y-141745238D02*
X149000000Y-141840476D01*
X149238096Y-141745238D01*
X148857143Y-142030952D02*
X149000000Y-141840476D01*
X149142858Y-142030952D01*
X149761905Y-141602381D02*
X149761905Y-141840476D01*
X149523810Y-141745238D02*
X149761905Y-141840476D01*
X150000001Y-141745238D01*
X149619048Y-142030952D02*
X149761905Y-141840476D01*
X149904763Y-142030952D01*
X140666667Y-125452381D02*
X140333333Y-124976190D01*
X140095238Y-125452381D02*
X140095238Y-124452381D01*
X140476191Y-124452381D01*
X140571429Y-124500000D01*
X140619048Y-124547619D01*
X140666667Y-124642857D01*
X140666667Y-124785714D01*
X140619048Y-124880952D01*
X140571429Y-124928571D01*
X140476191Y-124976190D01*
X140095238Y-124976190D01*
X141095238Y-124928571D02*
X141428572Y-124928571D01*
X141571429Y-125452381D02*
X141095238Y-125452381D01*
X141095238Y-124452381D01*
X141571429Y-124452381D01*
X142333334Y-124928571D02*
X142000000Y-124928571D01*
X142000000Y-125452381D02*
X142000000Y-124452381D01*
X142476191Y-124452381D01*
X143000000Y-124452381D02*
X143000000Y-124690476D01*
X142761905Y-124595238D02*
X143000000Y-124690476D01*
X143238096Y-124595238D01*
X142857143Y-124880952D02*
X143000000Y-124690476D01*
X143142858Y-124880952D01*
X143761905Y-124452381D02*
X143761905Y-124690476D01*
X143523810Y-124595238D02*
X143761905Y-124690476D01*
X144000001Y-124595238D01*
X143619048Y-124880952D02*
X143761905Y-124690476D01*
X143904763Y-124880952D01*
X153606667Y-175672381D02*
X153273333Y-175196190D01*
X153035238Y-175672381D02*
X153035238Y-174672381D01*
X153416191Y-174672381D01*
X153511429Y-174720000D01*
X153559048Y-174767619D01*
X153606667Y-174862857D01*
X153606667Y-175005714D01*
X153559048Y-175100952D01*
X153511429Y-175148571D01*
X153416191Y-175196190D01*
X153035238Y-175196190D01*
X154035238Y-175148571D02*
X154368572Y-175148571D01*
X154511429Y-175672381D02*
X154035238Y-175672381D01*
X154035238Y-174672381D01*
X154511429Y-174672381D01*
X155273334Y-175148571D02*
X154940000Y-175148571D01*
X154940000Y-175672381D02*
X154940000Y-174672381D01*
X155416191Y-174672381D01*
X155940000Y-174672381D02*
X155940000Y-174910476D01*
X155701905Y-174815238D02*
X155940000Y-174910476D01*
X156178096Y-174815238D01*
X155797143Y-175100952D02*
X155940000Y-174910476D01*
X156082858Y-175100952D01*
X156701905Y-174672381D02*
X156701905Y-174910476D01*
X156463810Y-174815238D02*
X156701905Y-174910476D01*
X156940001Y-174815238D01*
X156559048Y-175100952D02*
X156701905Y-174910476D01*
X156844763Y-175100952D01*
X26606667Y-175672381D02*
X26273333Y-175196190D01*
X26035238Y-175672381D02*
X26035238Y-174672381D01*
X26416191Y-174672381D01*
X26511429Y-174720000D01*
X26559048Y-174767619D01*
X26606667Y-174862857D01*
X26606667Y-175005714D01*
X26559048Y-175100952D01*
X26511429Y-175148571D01*
X26416191Y-175196190D01*
X26035238Y-175196190D01*
X27035238Y-175148571D02*
X27368572Y-175148571D01*
X27511429Y-175672381D02*
X27035238Y-175672381D01*
X27035238Y-174672381D01*
X27511429Y-174672381D01*
X28273334Y-175148571D02*
X27940000Y-175148571D01*
X27940000Y-175672381D02*
X27940000Y-174672381D01*
X28416191Y-174672381D01*
X28940000Y-174672381D02*
X28940000Y-174910476D01*
X28701905Y-174815238D02*
X28940000Y-174910476D01*
X29178096Y-174815238D01*
X28797143Y-175100952D02*
X28940000Y-174910476D01*
X29082858Y-175100952D01*
X29701905Y-174672381D02*
X29701905Y-174910476D01*
X29463810Y-174815238D02*
X29701905Y-174910476D01*
X29940001Y-174815238D01*
X29559048Y-175100952D02*
X29701905Y-174910476D01*
X29844763Y-175100952D01*
X153606667Y-123602381D02*
X153273333Y-123126190D01*
X153035238Y-123602381D02*
X153035238Y-122602381D01*
X153416191Y-122602381D01*
X153511429Y-122650000D01*
X153559048Y-122697619D01*
X153606667Y-122792857D01*
X153606667Y-122935714D01*
X153559048Y-123030952D01*
X153511429Y-123078571D01*
X153416191Y-123126190D01*
X153035238Y-123126190D01*
X154035238Y-123078571D02*
X154368572Y-123078571D01*
X154511429Y-123602381D02*
X154035238Y-123602381D01*
X154035238Y-122602381D01*
X154511429Y-122602381D01*
X155273334Y-123078571D02*
X154940000Y-123078571D01*
X154940000Y-123602381D02*
X154940000Y-122602381D01*
X155416191Y-122602381D01*
X155940000Y-122602381D02*
X155940000Y-122840476D01*
X155701905Y-122745238D02*
X155940000Y-122840476D01*
X156178096Y-122745238D01*
X155797143Y-123030952D02*
X155940000Y-122840476D01*
X156082858Y-123030952D01*
X156701905Y-122602381D02*
X156701905Y-122840476D01*
X156463810Y-122745238D02*
X156701905Y-122840476D01*
X156940001Y-122745238D01*
X156559048Y-123030952D02*
X156701905Y-122840476D01*
X156844763Y-123030952D01*
X26606667Y-123602381D02*
X26273333Y-123126190D01*
X26035238Y-123602381D02*
X26035238Y-122602381D01*
X26416191Y-122602381D01*
X26511429Y-122650000D01*
X26559048Y-122697619D01*
X26606667Y-122792857D01*
X26606667Y-122935714D01*
X26559048Y-123030952D01*
X26511429Y-123078571D01*
X26416191Y-123126190D01*
X26035238Y-123126190D01*
X27035238Y-123078571D02*
X27368572Y-123078571D01*
X27511429Y-123602381D02*
X27035238Y-123602381D01*
X27035238Y-122602381D01*
X27511429Y-122602381D01*
X28273334Y-123078571D02*
X27940000Y-123078571D01*
X27940000Y-123602381D02*
X27940000Y-122602381D01*
X28416191Y-122602381D01*
X28940000Y-122602381D02*
X28940000Y-122840476D01*
X28701905Y-122745238D02*
X28940000Y-122840476D01*
X29178096Y-122745238D01*
X28797143Y-123030952D02*
X28940000Y-122840476D01*
X29082858Y-123030952D01*
X29701905Y-122602381D02*
X29701905Y-122840476D01*
X29463810Y-122745238D02*
X29701905Y-122840476D01*
X29940001Y-122745238D01*
X29559048Y-123030952D02*
X29701905Y-122840476D01*
X29844763Y-123030952D01*
M02*
