M48
;DRILL file {KiCad 4.0.7-e2-6376~58~ubuntu16.04.1} date Thu Oct 31 20:50:45 2019
;FORMAT={-:-/ absolute / metric / decimal}
FMAT,2
METRIC,TZ
T1C0.400
T2C0.700
T3C0.762
T4C0.800
T5C1.000
T6C3.200
%
G90
G05
M71
T1
X41.876Y-164.747
X42.509Y-168.114
X52.518Y-174.683
X53.005Y-165.595
X53.538Y-166.201
X54.164Y-166.774
X60.655Y-177.816
X61.943Y-165.227
X62.204Y-177.579
X74.007Y-166.04
X76.601Y-166.669
X77.236Y-168.881
X78.432Y-178.26
X84.384Y-177.82
X84.476Y-165.313
X85.808Y-166.04
X89.435Y-178.274
X96.324Y-166.834
X97.657Y-168.971
X99.765Y-178.176
X102.946Y-178.773
X104.951Y-165.305
X106.326Y-166.078
X108.196Y-166.703
X121.004Y-168.462
X123.048Y-167.349
X126.93Y-165.369
X127.252Y-178.452
X128.158Y-166.999
X130.169Y-167.264
X134.584Y-168.79
X139.536Y-177.376
T2
X34.29Y-151.13
X34.29Y-154.94
X34.29Y-162.56
X41.91Y-151.13
X54.61Y-149.86
X55.88Y-154.94
X55.88Y-162.56
X62.23Y-149.86
X77.47Y-149.86
X78.74Y-154.94
X78.74Y-162.56
X85.09Y-149.86
X97.79Y-149.86
X99.06Y-154.94
X99.06Y-162.56
X105.41Y-149.86
X120.65Y-149.86
X121.92Y-154.94
X121.92Y-162.56
X128.27Y-149.86
X140.97Y-149.86
X142.24Y-154.94
X142.24Y-162.56
X148.59Y-149.86
T3
X34.13Y-172.24
X34.29Y-137.16
X34.29Y-144.78
X34.36Y-174.13
X34.81Y-170.45
X35.45Y-175.71
X35.56Y-129.54
X36.25Y-169.18
X36.83Y-137.16
X36.83Y-144.78
X37.15Y-176.6
X38.1Y-129.54
X38.1Y-168.72
X38.735Y-154.94
X38.735Y-162.56
X39.05Y-176.6
X39.37Y-137.16
X39.37Y-144.78
X39.95Y-169.18
X40.64Y-129.54
X40.75Y-175.71
X41.275Y-154.94
X41.275Y-162.56
X41.39Y-170.45
X41.84Y-174.13
X41.91Y-137.16
X41.91Y-144.78
X42.07Y-172.24
X43.18Y-129.54
X44.45Y-137.16
X44.45Y-144.78
X45.72Y-129.54
X46.99Y-137.16
X46.99Y-144.78
X48.26Y-129.54
X49.53Y-137.16
X49.53Y-144.78
X52.07Y-137.16
X52.07Y-144.78
X54.45Y-172.24
X54.68Y-174.13
X55.13Y-170.45
X55.77Y-175.71
X56.57Y-169.18
X57.47Y-176.6
X58.42Y-168.72
X59.37Y-176.6
X59.69Y-125.73
X59.69Y-140.97
X59.69Y-154.94
X59.69Y-162.56
X60.27Y-169.18
X61.07Y-175.71
X61.71Y-170.45
X62.16Y-174.13
X62.23Y-125.73
X62.23Y-140.97
X62.23Y-154.94
X62.23Y-162.56
X62.39Y-172.24
X64.77Y-125.73
X64.77Y-140.97
X67.31Y-125.73
X67.31Y-140.97
X69.85Y-125.73
X69.85Y-140.97
X72.39Y-125.73
X72.39Y-140.97
X74.93Y-125.73
X74.93Y-140.97
X77.31Y-172.24
X77.47Y-125.73
X77.47Y-140.97
X77.54Y-174.13
X77.99Y-170.45
X78.63Y-175.71
X79.43Y-169.18
X80.01Y-125.73
X80.01Y-140.97
X80.33Y-176.6
X81.28Y-168.72
X82.23Y-176.6
X82.55Y-125.73
X82.55Y-140.97
X82.55Y-154.94
X82.55Y-162.56
X83.13Y-169.18
X83.93Y-175.71
X84.57Y-170.45
X85.02Y-174.13
X85.09Y-125.73
X85.09Y-140.97
X85.09Y-154.94
X85.09Y-162.56
X85.25Y-172.24
X87.63Y-125.73
X87.63Y-140.97
X88.9Y-144.78
X90.17Y-125.73
X90.17Y-140.97
X92.71Y-125.73
X92.71Y-140.97
X93.98Y-144.78
X95.25Y-125.73
X95.25Y-140.97
X97.63Y-172.24
X97.86Y-174.13
X98.31Y-170.45
X98.95Y-175.71
X99.75Y-169.18
X100.65Y-176.6
X101.6Y-168.72
X102.55Y-176.6
X102.87Y-154.94
X102.87Y-162.56
X103.45Y-169.18
X104.25Y-175.71
X104.89Y-170.45
X105.34Y-174.13
X105.41Y-154.94
X105.41Y-162.56
X105.57Y-172.24
X120.49Y-172.24
X120.72Y-174.13
X121.17Y-170.45
X121.81Y-175.71
X122.61Y-169.18
X123.51Y-176.6
X124.46Y-168.72
X125.41Y-176.6
X125.73Y-154.94
X125.73Y-162.56
X126.31Y-169.18
X127.11Y-175.71
X127.75Y-170.45
X128.2Y-174.13
X128.27Y-154.94
X128.27Y-162.56
X128.43Y-172.24
X137.16Y-144.78
X140.81Y-172.24
X141.04Y-174.13
X141.49Y-170.45
X142.13Y-175.71
X142.24Y-144.78
X142.93Y-169.18
X143.83Y-176.6
X144.78Y-168.72
X145.73Y-176.6
X146.05Y-154.94
X146.05Y-162.56
X146.63Y-169.18
X147.43Y-175.71
X148.07Y-170.45
X148.52Y-174.13
X148.59Y-154.94
X148.59Y-162.56
X148.75Y-172.24
T4
X104.18Y-135.89
X106.68Y-135.89
X129.54Y-135.89
X132.08Y-135.89
T5
X116.84Y-135.89
X119.38Y-135.89
X121.92Y-135.89
T6
X27.94Y-127.
X27.94Y-179.07
X82.Y-146.
X148.Y-125.
X148.Y-146.
X154.94Y-127.
X154.94Y-179.07
T3
X142.09Y-133.449G85X142.09Y-130.711
G05
X144.071Y-137.08G85X146.509Y-137.08
G05
X148.59Y-133.299G85X148.59Y-130.861
G05
T0
M30
