G04 #@! TF.FileFunction,Copper,L2,Bot,Signal*
%FSLAX46Y46*%
G04 Gerber Fmt 4.6, Leading zero omitted, Abs format (unit mm)*
G04 Created by KiCad (PCBNEW 4.0.7-e2-6376~58~ubuntu16.04.1) date Thu Oct 31 20:50:36 2019*
%MOMM*%
%LPD*%
G01*
G04 APERTURE LIST*
%ADD10C,0.100000*%
%ADD11C,1.524000*%
%ADD12C,1.600000*%
%ADD13R,1.600000X1.600000*%
%ADD14C,1.400000*%
%ADD15O,1.400000X1.400000*%
%ADD16R,1.800000X1.800000*%
%ADD17O,1.800000X1.800000*%
%ADD18O,1.524000X4.500000*%
%ADD19O,1.524000X4.200000*%
%ADD20O,4.200000X1.524000*%
%ADD21C,5.700000*%
%ADD22C,0.600000*%
%ADD23C,0.250000*%
G04 APERTURE END LIST*
D10*
D11*
X59690000Y-140970000D03*
X62230000Y-140970000D03*
X64770000Y-140970000D03*
X67310000Y-140970000D03*
X69850000Y-140970000D03*
X72390000Y-140970000D03*
X74930000Y-140970000D03*
X77470000Y-140970000D03*
X80010000Y-140970000D03*
X82550000Y-140970000D03*
X85090000Y-140970000D03*
X87630000Y-140970000D03*
X90170000Y-140970000D03*
X92710000Y-140970000D03*
X95250000Y-140970000D03*
X95250000Y-125730000D03*
X92710000Y-125730000D03*
X90170000Y-125730000D03*
X87630000Y-125730000D03*
X85090000Y-125730000D03*
X82550000Y-125730000D03*
X80010000Y-125730000D03*
X77470000Y-125730000D03*
X74930000Y-125730000D03*
X72390000Y-125730000D03*
X69850000Y-125730000D03*
X67310000Y-125730000D03*
X64770000Y-125730000D03*
X62230000Y-125730000D03*
X59690000Y-125730000D03*
D12*
X129540000Y-135890000D03*
X132080000Y-135890000D03*
D13*
X106680000Y-135890000D03*
D12*
X104180000Y-135890000D03*
D11*
X38100000Y-168720000D03*
X36250000Y-169180000D03*
X34810000Y-170450000D03*
X34130000Y-172240000D03*
X34360000Y-174130000D03*
X35450000Y-175710000D03*
X37150000Y-176600000D03*
X39050000Y-176600000D03*
X40750000Y-175710000D03*
X41840000Y-174130000D03*
X42070000Y-172240000D03*
X41390000Y-170450000D03*
X39950000Y-169180000D03*
X58420000Y-168720000D03*
X56570000Y-169180000D03*
X55130000Y-170450000D03*
X54450000Y-172240000D03*
X54680000Y-174130000D03*
X55770000Y-175710000D03*
X57470000Y-176600000D03*
X59370000Y-176600000D03*
X61070000Y-175710000D03*
X62160000Y-174130000D03*
X62390000Y-172240000D03*
X61710000Y-170450000D03*
X60270000Y-169180000D03*
X81280000Y-168720000D03*
X79430000Y-169180000D03*
X77990000Y-170450000D03*
X77310000Y-172240000D03*
X77540000Y-174130000D03*
X78630000Y-175710000D03*
X80330000Y-176600000D03*
X82230000Y-176600000D03*
X83930000Y-175710000D03*
X85020000Y-174130000D03*
X85250000Y-172240000D03*
X84570000Y-170450000D03*
X83130000Y-169180000D03*
X101600000Y-168720000D03*
X99750000Y-169180000D03*
X98310000Y-170450000D03*
X97630000Y-172240000D03*
X97860000Y-174130000D03*
X98950000Y-175710000D03*
X100650000Y-176600000D03*
X102550000Y-176600000D03*
X104250000Y-175710000D03*
X105340000Y-174130000D03*
X105570000Y-172240000D03*
X104890000Y-170450000D03*
X103450000Y-169180000D03*
X124460000Y-168720000D03*
X122610000Y-169180000D03*
X121170000Y-170450000D03*
X120490000Y-172240000D03*
X120720000Y-174130000D03*
X121810000Y-175710000D03*
X123510000Y-176600000D03*
X125410000Y-176600000D03*
X127110000Y-175710000D03*
X128200000Y-174130000D03*
X128430000Y-172240000D03*
X127750000Y-170450000D03*
X126310000Y-169180000D03*
X144780000Y-168720000D03*
X142930000Y-169180000D03*
X141490000Y-170450000D03*
X140810000Y-172240000D03*
X141040000Y-174130000D03*
X142130000Y-175710000D03*
X143830000Y-176600000D03*
X145730000Y-176600000D03*
X147430000Y-175710000D03*
X148520000Y-174130000D03*
X148750000Y-172240000D03*
X148070000Y-170450000D03*
X146630000Y-169180000D03*
X34290000Y-144780000D03*
X36830000Y-144780000D03*
X39370000Y-144780000D03*
X41910000Y-144780000D03*
X44450000Y-144780000D03*
X46990000Y-144780000D03*
X49530000Y-144780000D03*
X52070000Y-144780000D03*
X52070000Y-137160000D03*
X49530000Y-137160000D03*
X46990000Y-137160000D03*
X44450000Y-137160000D03*
X41910000Y-137160000D03*
X39370000Y-137160000D03*
X36830000Y-137160000D03*
X34290000Y-137160000D03*
D14*
X34290000Y-151130000D03*
D15*
X41910000Y-151130000D03*
D14*
X34290000Y-154940000D03*
D15*
X34290000Y-162560000D03*
D14*
X54610000Y-149860000D03*
D15*
X62230000Y-149860000D03*
D14*
X55880000Y-154940000D03*
D15*
X55880000Y-162560000D03*
D14*
X77470000Y-149860000D03*
D15*
X85090000Y-149860000D03*
D14*
X78740000Y-154940000D03*
D15*
X78740000Y-162560000D03*
D14*
X97790000Y-149860000D03*
D15*
X105410000Y-149860000D03*
D14*
X99060000Y-154940000D03*
D15*
X99060000Y-162560000D03*
D14*
X121920000Y-154940000D03*
D15*
X121920000Y-162560000D03*
D14*
X120650000Y-149860000D03*
D15*
X128270000Y-149860000D03*
D14*
X140970000Y-149860000D03*
D15*
X148590000Y-149860000D03*
D14*
X142240000Y-154940000D03*
D15*
X142240000Y-162560000D03*
D11*
X41275000Y-154940000D03*
X38735000Y-154940000D03*
X38735000Y-162560000D03*
X41275000Y-162560000D03*
X62230000Y-154940000D03*
X59690000Y-154940000D03*
X59690000Y-162560000D03*
X62230000Y-162560000D03*
X85090000Y-154940000D03*
X82550000Y-154940000D03*
X82550000Y-162560000D03*
X85090000Y-162560000D03*
X105410000Y-154940000D03*
X102870000Y-154940000D03*
X102870000Y-162560000D03*
X105410000Y-162560000D03*
X128270000Y-154940000D03*
X125730000Y-154940000D03*
X125730000Y-162560000D03*
X128270000Y-162560000D03*
X148590000Y-154940000D03*
X146050000Y-154940000D03*
X146050000Y-162560000D03*
X148590000Y-162560000D03*
D16*
X116840000Y-135890000D03*
D17*
X119380000Y-135890000D03*
X121920000Y-135890000D03*
D11*
X35560000Y-129540000D03*
X38100000Y-129540000D03*
X40640000Y-129540000D03*
X43180000Y-129540000D03*
X45720000Y-129540000D03*
X48260000Y-129540000D03*
X88900000Y-144780000D03*
X93980000Y-144780000D03*
X142240000Y-144780000D03*
X137160000Y-144780000D03*
D18*
X142090000Y-132080000D03*
D19*
X148590000Y-132080000D03*
D20*
X145290000Y-137080000D03*
D21*
X82000000Y-146000000D03*
X148000000Y-146000000D03*
X148000000Y-125000000D03*
X154940000Y-179070000D03*
X27940000Y-179070000D03*
X154940000Y-127000000D03*
X27940000Y-127000000D03*
D22*
X97657500Y-168970800D03*
X54163800Y-166773800D03*
X77235500Y-168881500D03*
X134584100Y-168790000D03*
X53538500Y-166201000D03*
X121004100Y-168461900D03*
X96324100Y-166834300D03*
X123047900Y-167348500D03*
X76600900Y-166669100D03*
X53005000Y-165594700D03*
X108195800Y-166703200D03*
X78431700Y-178260100D03*
X84383800Y-177820100D03*
X99764600Y-178176300D03*
X139535900Y-177376300D03*
X60655100Y-177816100D03*
X102946300Y-178773500D03*
X89435000Y-178273900D03*
X52517600Y-174683100D03*
X127252500Y-178451900D03*
X62204100Y-177578800D03*
X74006600Y-166039500D03*
X42509100Y-168114500D03*
X106325700Y-166077800D03*
X85808400Y-166039500D03*
X128158200Y-166999300D03*
X61943400Y-165226900D03*
X41876100Y-164746600D03*
X104951500Y-165305500D03*
X126930400Y-165369400D03*
X84476100Y-165313300D03*
X130168900Y-167264100D03*
D23*
X121920000Y-135890000D02*
X120694700Y-135890000D01*
X68624700Y-134664700D02*
X59690000Y-125730000D01*
X119929000Y-134664700D02*
X68624700Y-134664700D01*
X120694700Y-135430400D02*
X119929000Y-134664700D01*
X120694700Y-135890000D02*
X120694700Y-135430400D01*
X45720000Y-143510000D02*
X44450000Y-144780000D01*
X45720000Y-136887800D02*
X45720000Y-143510000D01*
X56877800Y-125730000D02*
X45720000Y-136887800D01*
X59690000Y-125730000D02*
X56877800Y-125730000D01*
X97790000Y-148590000D02*
X97790000Y-149860000D01*
X93980000Y-144780000D02*
X97790000Y-148590000D01*
X44450000Y-133350000D02*
X48260000Y-129540000D01*
X44450000Y-137160000D02*
X44450000Y-133350000D01*
X61099700Y-124599700D02*
X62230000Y-125730000D01*
X53200300Y-124599700D02*
X61099700Y-124599700D01*
X48260000Y-129540000D02*
X53200300Y-124599700D01*
X119380000Y-135890000D02*
X119380000Y-137115300D01*
X105405300Y-137115300D02*
X119380000Y-137115300D01*
X104180000Y-135890000D02*
X105405300Y-137115300D01*
X119380000Y-148590000D02*
X120650000Y-149860000D01*
X119380000Y-137115300D02*
X119380000Y-148590000D01*
X56199800Y-149860000D02*
X54610000Y-149860000D01*
X60960000Y-154620200D02*
X56199800Y-149860000D01*
X60960000Y-155217300D02*
X60960000Y-154620200D01*
X61783400Y-156040700D02*
X60960000Y-155217300D01*
X71289300Y-156040700D02*
X61783400Y-156040700D01*
X77470000Y-149860000D02*
X71289300Y-156040700D01*
X148590000Y-132080000D02*
X147502700Y-132080000D01*
X140970000Y-135890000D02*
X140970000Y-149860000D01*
X143692700Y-135890000D02*
X140970000Y-135890000D01*
X147502700Y-132080000D02*
X143692700Y-135890000D01*
X140970000Y-135890000D02*
X132080000Y-135890000D01*
X34290000Y-162560000D02*
X34290000Y-163585300D01*
X38100000Y-167395300D02*
X34290000Y-163585300D01*
X38100000Y-168720000D02*
X38100000Y-167395300D01*
X77534000Y-169180000D02*
X77235500Y-168881500D01*
X79430000Y-169180000D02*
X77534000Y-169180000D01*
X56570000Y-169180000D02*
X54163800Y-166773800D01*
X99540800Y-168970800D02*
X97657500Y-168970800D01*
X99750000Y-169180000D02*
X99540800Y-168970800D01*
X134974100Y-169180000D02*
X134584100Y-168790000D01*
X142930000Y-169180000D02*
X134974100Y-169180000D01*
X35732400Y-136062400D02*
X36830000Y-137160000D01*
X33812000Y-136062400D02*
X35732400Y-136062400D01*
X32304700Y-137569700D02*
X33812000Y-136062400D01*
X32304700Y-165234700D02*
X32304700Y-137569700D01*
X36250000Y-169180000D02*
X32304700Y-165234700D01*
X53538500Y-168858500D02*
X55130000Y-170450000D01*
X53538500Y-166201000D02*
X53538500Y-168858500D01*
X121004100Y-170284100D02*
X121170000Y-170450000D01*
X121004100Y-168461900D02*
X121004100Y-170284100D01*
X50621000Y-136069000D02*
X49530000Y-137160000D01*
X52518700Y-136069000D02*
X50621000Y-136069000D01*
X54146400Y-137696700D02*
X52518700Y-136069000D01*
X54146400Y-147281100D02*
X54146400Y-137696700D01*
X53538500Y-147889000D02*
X54146400Y-147281100D01*
X53538500Y-155687100D02*
X53538500Y-147889000D01*
X53630300Y-155778900D02*
X53538500Y-155687100D01*
X53630300Y-166109200D02*
X53630300Y-155778900D01*
X53538500Y-166201000D02*
X53630300Y-166109200D01*
X76600900Y-171530900D02*
X76600900Y-166669100D01*
X77310000Y-172240000D02*
X76600900Y-171530900D01*
X96324100Y-170934100D02*
X96324100Y-166834300D01*
X97630000Y-172240000D02*
X96324100Y-170934100D01*
X111002400Y-169509800D02*
X108195800Y-166703200D01*
X119071900Y-169509800D02*
X111002400Y-169509800D01*
X121233200Y-167348500D02*
X119071900Y-169509800D01*
X123047900Y-167348500D02*
X121233200Y-167348500D01*
X119071900Y-170821900D02*
X120490000Y-172240000D01*
X119071900Y-169509800D02*
X119071900Y-170821900D01*
X52905200Y-170695200D02*
X54450000Y-172240000D01*
X52905200Y-165694500D02*
X52905200Y-170695200D01*
X53005000Y-165594700D02*
X52905200Y-165694500D01*
X53005000Y-146743500D02*
X53005000Y-165594700D01*
X53673300Y-146075200D02*
X53005000Y-146743500D01*
X53673300Y-138763300D02*
X53673300Y-146075200D01*
X52070000Y-137160000D02*
X53673300Y-138763300D01*
X78630000Y-178061800D02*
X78431700Y-178260100D01*
X78630000Y-175710000D02*
X78630000Y-178061800D01*
X98950000Y-176645000D02*
X98950000Y-175710000D01*
X99157200Y-176645000D02*
X98950000Y-176645000D01*
X100210100Y-177697900D02*
X99157200Y-176645000D01*
X119822100Y-177697900D02*
X100210100Y-177697900D01*
X121810000Y-175710000D02*
X119822100Y-177697900D01*
X85558900Y-176645000D02*
X84383800Y-177820100D01*
X98950000Y-176645000D02*
X85558900Y-176645000D01*
X80330000Y-177272300D02*
X80330000Y-176600000D01*
X99792700Y-178148200D02*
X99764600Y-178176300D01*
X121961800Y-178148200D02*
X99792700Y-178148200D01*
X123510000Y-176600000D02*
X121961800Y-178148200D01*
X143053700Y-177376300D02*
X139535900Y-177376300D01*
X143830000Y-176600000D02*
X143053700Y-177376300D01*
X99016000Y-178924900D02*
X99764600Y-178176300D01*
X81982600Y-178924900D02*
X99016000Y-178924900D01*
X80330000Y-177272300D02*
X81982600Y-178924900D01*
X78681500Y-178920800D02*
X80330000Y-177272300D01*
X61759800Y-178920800D02*
X78681500Y-178920800D01*
X60655100Y-177816100D02*
X61759800Y-178920800D01*
X36896600Y-176853400D02*
X37150000Y-176600000D01*
X34995600Y-176853400D02*
X36896600Y-176853400D01*
X31825600Y-173683400D02*
X34995600Y-176853400D01*
X31825600Y-137411900D02*
X31825600Y-173683400D01*
X33660900Y-135576600D02*
X31825600Y-137411900D01*
X37786600Y-135576600D02*
X33660900Y-135576600D01*
X39370000Y-137160000D02*
X37786600Y-135576600D01*
X59844200Y-178627000D02*
X60655100Y-177816100D01*
X39177000Y-178627000D02*
X59844200Y-178627000D01*
X37150000Y-176600000D02*
X39177000Y-178627000D01*
X125410000Y-176600000D02*
X125410000Y-178063400D01*
X143249900Y-179080100D02*
X145730000Y-176600000D01*
X126426700Y-179080100D02*
X143249900Y-179080100D01*
X125410000Y-178063400D02*
X126426700Y-179080100D01*
X124699900Y-178773500D02*
X102946300Y-178773500D01*
X125410000Y-178063400D02*
X124699900Y-178773500D01*
X89248500Y-178460400D02*
X89435000Y-178273900D01*
X84090400Y-178460400D02*
X89248500Y-178460400D01*
X82230000Y-176600000D02*
X84090400Y-178460400D01*
X56248600Y-177726300D02*
X52861500Y-174339200D01*
X58243700Y-177726300D02*
X56248600Y-177726300D01*
X59370000Y-176600000D02*
X58243700Y-177726300D01*
X52333900Y-173811600D02*
X52861500Y-174339200D01*
X52333900Y-146665800D02*
X52333900Y-173811600D01*
X53167500Y-145832200D02*
X52333900Y-146665800D01*
X53167500Y-143337500D02*
X53167500Y-145832200D01*
X46990000Y-137160000D02*
X53167500Y-143337500D01*
X52861500Y-174339200D02*
X52517600Y-174683100D01*
X127110000Y-178309400D02*
X127110000Y-175710000D01*
X127252500Y-178451900D02*
X127110000Y-178309400D01*
X61070000Y-175710000D02*
X61070000Y-176487700D01*
X61113000Y-176487700D02*
X62204100Y-177578800D01*
X61070000Y-176487700D02*
X61113000Y-176487700D01*
X51467100Y-175710000D02*
X51883500Y-175293600D01*
X40750000Y-175710000D02*
X51467100Y-175710000D01*
X51883500Y-144966500D02*
X51883500Y-175293600D01*
X52070000Y-144780000D02*
X51883500Y-144966500D01*
X59381000Y-178176700D02*
X61070000Y-176487700D01*
X54766600Y-178176700D02*
X59381000Y-178176700D01*
X51883500Y-175293600D02*
X54766600Y-178176700D01*
X67806100Y-172240000D02*
X74006600Y-166039500D01*
X62390000Y-172240000D02*
X67806100Y-172240000D01*
X42509100Y-161358400D02*
X42509100Y-168114500D01*
X33241200Y-152090500D02*
X42509100Y-161358400D01*
X33241200Y-145828800D02*
X33241200Y-152090500D01*
X34290000Y-144780000D02*
X33241200Y-145828800D01*
X42509100Y-171800900D02*
X42070000Y-172240000D01*
X42509100Y-168114500D02*
X42509100Y-171800900D01*
X106325700Y-171484300D02*
X106325700Y-166077800D01*
X105570000Y-172240000D02*
X106325700Y-171484300D01*
X85808300Y-166039500D02*
X85808400Y-166039500D01*
X85808300Y-171681700D02*
X85808300Y-166039500D01*
X85250000Y-172240000D02*
X85808300Y-171681700D01*
X128869100Y-167710200D02*
X128158200Y-166999300D01*
X128869100Y-171800900D02*
X128869100Y-167710200D01*
X128430000Y-172240000D02*
X128869100Y-171800900D01*
X41390000Y-165232700D02*
X41876100Y-164746600D01*
X41390000Y-170450000D02*
X41390000Y-165232700D01*
X104890000Y-165367000D02*
X104951500Y-165305500D01*
X104890000Y-170450000D02*
X104890000Y-165367000D01*
X61943400Y-170216600D02*
X61710000Y-170450000D01*
X61943400Y-165226900D02*
X61943400Y-170216600D01*
X84476100Y-170356100D02*
X84570000Y-170450000D01*
X84476100Y-165313300D02*
X84476100Y-170356100D01*
X127497800Y-170197800D02*
X127497800Y-166373900D01*
X127750000Y-170450000D02*
X127497800Y-170197800D01*
X127497800Y-165936800D02*
X126930400Y-165369400D01*
X127497800Y-166373900D02*
X127497800Y-165936800D01*
X129278700Y-166373900D02*
X130168900Y-167264100D01*
X127497800Y-166373900D02*
X129278700Y-166373900D01*
X32783300Y-138666700D02*
X34290000Y-137160000D01*
X32783300Y-159588400D02*
X32783300Y-138666700D01*
X39950000Y-166755100D02*
X32783300Y-159588400D01*
X39950000Y-169180000D02*
X39950000Y-166755100D01*
X79154100Y-161523900D02*
X83130000Y-165499800D01*
X78203200Y-161523900D02*
X79154100Y-161523900D01*
X76056800Y-163670300D02*
X78203200Y-161523900D01*
X62615700Y-163670300D02*
X76056800Y-163670300D01*
X60270000Y-166016000D02*
X62615700Y-163670300D01*
X60270000Y-169180000D02*
X60270000Y-166016000D01*
X83130000Y-165499800D02*
X83130000Y-169180000D01*
X103450000Y-169180000D02*
X103450000Y-165486800D01*
X84102000Y-164527800D02*
X83130000Y-165499800D01*
X84924700Y-164527800D02*
X84102000Y-164527800D01*
X87965700Y-161486800D02*
X84924700Y-164527800D01*
X99450000Y-161486800D02*
X87965700Y-161486800D01*
X103450000Y-165486800D02*
X99450000Y-161486800D01*
X122680600Y-161485900D02*
X126305100Y-165110400D01*
X109018400Y-161485900D02*
X122680600Y-161485900D01*
X105881900Y-164622400D02*
X109018400Y-161485900D01*
X104314400Y-164622400D02*
X105881900Y-164622400D01*
X103450000Y-165486800D02*
X104314400Y-164622400D01*
X126671400Y-164744100D02*
X126305100Y-165110400D01*
X128558700Y-164744100D02*
X126671400Y-164744100D01*
X131769000Y-161533800D02*
X128558700Y-164744100D01*
X142734400Y-161533800D02*
X131769000Y-161533800D01*
X146630000Y-165429400D02*
X142734400Y-161533800D01*
X146630000Y-169180000D02*
X146630000Y-165429400D01*
X126305100Y-169175100D02*
X126310000Y-169180000D01*
X126305100Y-165110400D02*
X126305100Y-169175100D01*
X58420000Y-166125300D02*
X58420000Y-168720000D01*
X55880000Y-163585300D02*
X58420000Y-166125300D01*
X55880000Y-162560000D02*
X55880000Y-163585300D01*
X81280000Y-166125300D02*
X81280000Y-168720000D01*
X78740000Y-163585300D02*
X81280000Y-166125300D01*
X78740000Y-162560000D02*
X78740000Y-163585300D01*
X101600000Y-166125300D02*
X101600000Y-168720000D01*
X99060000Y-163585300D02*
X101600000Y-166125300D01*
X99060000Y-162560000D02*
X99060000Y-163585300D01*
X121920000Y-162560000D02*
X121920000Y-163585300D01*
X124460000Y-166125300D02*
X121920000Y-163585300D01*
X124460000Y-168720000D02*
X124460000Y-166125300D01*
X144780000Y-166125300D02*
X144780000Y-168720000D01*
X142240000Y-163585300D02*
X144780000Y-166125300D01*
X142240000Y-162560000D02*
X142240000Y-163585300D01*
X41519700Y-152155300D02*
X41910000Y-152155300D01*
X38735000Y-154940000D02*
X41519700Y-152155300D01*
X41910000Y-151130000D02*
X41910000Y-152155300D01*
X34290000Y-158115000D02*
X34290000Y-154940000D01*
X38735000Y-162560000D02*
X34290000Y-158115000D01*
X55880000Y-158750000D02*
X55880000Y-154940000D01*
X59690000Y-162560000D02*
X55880000Y-158750000D01*
X85090000Y-152400000D02*
X85090000Y-149860000D01*
X82550000Y-154940000D02*
X85090000Y-152400000D01*
X78740000Y-158750000D02*
X78740000Y-154940000D01*
X82550000Y-162560000D02*
X78740000Y-158750000D01*
X106515200Y-151990500D02*
X105410000Y-150885300D01*
X106515200Y-155397800D02*
X106515200Y-151990500D01*
X105882500Y-156030500D02*
X106515200Y-155397800D01*
X103960500Y-156030500D02*
X105882500Y-156030500D01*
X102870000Y-154940000D02*
X103960500Y-156030500D01*
X105410000Y-149860000D02*
X105410000Y-150885300D01*
X102870000Y-158750000D02*
X99060000Y-154940000D01*
X102870000Y-162560000D02*
X102870000Y-158750000D01*
X121920000Y-158750000D02*
X121920000Y-154940000D01*
X125730000Y-162560000D02*
X121920000Y-158750000D01*
X125730000Y-153425300D02*
X128270000Y-150885300D01*
X125730000Y-154940000D02*
X125730000Y-153425300D01*
X128270000Y-149860000D02*
X128270000Y-150885300D01*
X146050000Y-153425300D02*
X148590000Y-150885300D01*
X146050000Y-154940000D02*
X146050000Y-153425300D01*
X148590000Y-149860000D02*
X148590000Y-150885300D01*
X142240000Y-158750000D02*
X142240000Y-154940000D01*
X146050000Y-162560000D02*
X142240000Y-158750000D01*
X86130300Y-153899700D02*
X85090000Y-154940000D01*
X86130300Y-142010300D02*
X86130300Y-153899700D01*
X85090000Y-140970000D02*
X86130300Y-142010300D01*
X105410000Y-154619600D02*
X105410000Y-154940000D01*
X94031600Y-143241200D02*
X105410000Y-154619600D01*
X89901200Y-143241200D02*
X94031600Y-143241200D01*
X87630000Y-140970000D02*
X89901200Y-143241200D01*
X91858000Y-142658000D02*
X90170000Y-140970000D01*
X111119700Y-142658000D02*
X91858000Y-142658000D01*
X124494500Y-156032800D02*
X111119700Y-142658000D01*
X127177200Y-156032800D02*
X124494500Y-156032800D01*
X128270000Y-154940000D02*
X127177200Y-156032800D01*
M02*
